/* XPM */
static char * collectable_xpm[] = {
"30 30 832 2",
"  	c #8E0F22",
". 	c #830C1D",
"+ 	c #900E22",
"@ 	c #9A1027",
"# 	c #AD1431",
"$ 	c #A1122C",
"% 	c #A5122D",
"& 	c #A6122C",
"* 	c #991129",
"= 	c #A21029",
"- 	c #A5112A",
"; 	c #B71332",
"> 	c #AC122F",
", 	c #B81537",
"' 	c #B31436",
") 	c #BC193F",
"! 	c #BC1B42",
"~ 	c #B51B42",
"{ 	c #C01B44",
"] 	c #A71534",
"^ 	c #A3122E",
"/ 	c #9F112B",
"( 	c #AD1430",
"_ 	c #A5122E",
": 	c #A8122D",
"< 	c #A6122B",
"[ 	c #990F26",
"} 	c #980E25",
"| 	c #8A0A1D",
"1 	c #820719",
"2 	c #850C1E",
"3 	c #820B1B",
"4 	c #8C0E20",
"5 	c #950E24",
"6 	c #A6132E",
"7 	c #9A0F27",
"8 	c #960D24",
"9 	c #9C1027",
"0 	c #910F24",
"a 	c #9E0E26",
"b 	c #9D0E27",
"c 	c #A00F28",
"d 	c #A3102C",
"e 	c #AB102F",
"f 	c #B11434",
"g 	c #AE1436",
"h 	c #B2173C",
"i 	c #A71436",
"j 	c #AB1435",
"k 	c #990F29",
"l 	c #980D26",
"m 	c #950D23",
"n 	c #A41029",
"o 	c #9F0E28",
"p 	c #9E0F27",
"q 	c #A10F27",
"r 	c #8F0B1F",
"s 	c #920A1E",
"t 	c #8B0618",
"u 	c #850515",
"v 	c #930E22",
"w 	c #970D22",
"x 	c #9C0E25",
"y 	c #AB122E",
"z 	c #A4102A",
"A 	c #AA122B",
"B 	c #9C0F26",
"C 	c #A71028",
"D 	c #B1102D",
"E 	c #A8102B",
"F 	c #AF1230",
"G 	c #B51333",
"H 	c #B41234",
"I 	c #C0163D",
"J 	c #B8173D",
"K 	c #BC153C",
"L 	c #B71537",
"M 	c #A4102D",
"N 	c #A5102C",
"O 	c #A40F2A",
"P 	c #AB112C",
"Q 	c #A90F2A",
"R 	c #AE0F2A",
"S 	c #AB0E28",
"T 	c #990C22",
"U 	c #99081E",
"V 	c #8E0516",
"W 	c #910414",
"X 	c #950B20",
"Y 	c #970E23",
"Z 	c #9C0E23",
"` 	c #950B21",
" .	c #9F0E27",
"..	c #990D24",
"+.	c #930B20",
"@.	c #9A0E23",
"#.	c #960C21",
"$.	c #9C0C22",
"%.	c #9D0C22",
"&.	c #9D0D25",
"*.	c #9A0B24",
"=.	c #A60C29",
"-.	c #AA0F2E",
";.	c #A60E2F",
">.	c #B31439",
",.	c #A40F2F",
"'.	c #A7112E",
").	c #960C25",
"!.	c #A30F29",
"~.	c #A10D27",
"{.	c #A00E26",
"].	c #9D0B22",
"^.	c #9C0A1F",
"/.	c #9A0A1E",
"(.	c #8D071A",
"_.	c #900618",
":.	c #830311",
"<.	c #840311",
"[.	c #9B0C21",
"}.	c #8F0A1D",
"|.	c #A30E24",
"1.	c #960B20",
"2.	c #A50E28",
"3.	c #990D22",
"4.	c #91081B",
"5.	c #9D0A21",
"6.	c #8F081C",
"7.	c #9C091F",
"8.	c #9F0921",
"9.	c #9F0A23",
"0.	c #A20B24",
"a.	c #A40C27",
"b.	c #A20B28",
"c.	c #A80F2F",
"d.	c #B71236",
"e.	c #A20F2D",
"f.	c #A60D2C",
"g.	c #9E0C27",
"h.	c #9E0C23",
"i.	c #9E0A22",
"j.	c #98081D",
"k.	c #94071B",
"l.	c #97081C",
"m.	c #810512",
"n.	c #8B0312",
"o.	c #82030E",
"p.	c #880412",
"q.	c #A20D24",
"r.	c #A00D23",
"s.	c #AD0D25",
"t.	c #A20C22",
"u.	c #A50C26",
"v.	c #9F0A22",
"w.	c #9F0A1F",
"x.	c #A0091E",
"y.	c #A10A20",
"z.	c #A90921",
"A.	c #A60B24",
"B.	c #B00C27",
"C.	c #AD0D27",
"D.	c #B50E2D",
"E.	c #B70F31",
"F.	c #BB1237",
"G.	c #BF1337",
"H.	c #AB0E2E",
"I.	c #AD0D2B",
"J.	c #AD0D2A",
"K.	c #B50E2A",
"L.	c #A40B23",
"M.	c #B20C27",
"N.	c #A4091F",
"O.	c #9E081C",
"P.	c #980619",
"Q.	c #940414",
"R.	c #920312",
"S.	c #8B0311",
"T.	c #920415",
"U.	c #9E0D23",
"V.	c #930A1C",
"W.	c #9C0B1E",
"X.	c #92081B",
"Y.	c #A10C22",
"Z.	c #9C0A1E",
"`.	c #8D0618",
" +	c #93081C",
".+	c #A40A21",
"++	c #9C0A21",
"@+	c #A60C25",
"#+	c #A70D27",
"$+	c #AA0D2B",
"%+	c #A30D2A",
"&+	c #B11030",
"*+	c #A40D29",
"=+	c #A70C29",
"-+	c #A60C27",
";+	c #AA0C26",
">+	c #97071D",
",+	c #98071B",
"'+	c #930617",
")+	c #8F0514",
"!+	c #8E0414",
"~+	c #850410",
"{+	c #8C0412",
"]+	c #850310",
"^+	c #8C0411",
"/+	c #A10F23",
"(+	c #A10C20",
"_+	c #AB0E25",
":+	c #A70E24",
"<+	c #AC0D24",
"[+	c #A90E25",
"}+	c #A60D23",
"|+	c #B20F25",
"1+	c #B30F28",
"2+	c #AB0E27",
"3+	c #B70F2B",
"4+	c #B50F2C",
"5+	c #BD0F30",
"6+	c #B61031",
"7+	c #B81132",
"8+	c #C51438",
"9+	c #B0102E",
"0+	c #B70F2F",
"a+	c #B60D2C",
"b+	c #B10D27",
"c+	c #A80A21",
"d+	c #A9091F",
"e+	c #9C071A",
"f+	c #9E0619",
"g+	c #9F0519",
"h+	c #990516",
"i+	c #910413",
"j+	c #960413",
"k+	c #A00C22",
"l+	c #9F0B1F",
"m+	c #A40D24",
"n+	c #970A1D",
"o+	c #A70D23",
"p+	c #9E0B1F",
"q+	c #A50C21",
"r+	c #AB0D23",
"s+	c #AE0D25",
"t+	c #A50C24",
"u+	c #B40F2A",
"v+	c #AA0C27",
"w+	c #BE0E2E",
"x+	c #AF0F2C",
"y+	c #B00F2E",
"z+	c #B01231",
"A+	c #AB102D",
"B+	c #AD0E2A",
"C+	c #B10C28",
"D+	c #A70921",
"E+	c #97071B",
"F+	c #9A071A",
"G+	c #900515",
"H+	c #950617",
"I+	c #970617",
"J+	c #8B0412",
"K+	c #8F0413",
"L+	c #83040F",
"M+	c #890310",
"N+	c #97091C",
"O+	c #A30E22",
"P+	c #990A1C",
"Q+	c #A80C22",
"R+	c #A80D22",
"S+	c #A50B1F",
"T+	c #B10F25",
"U+	c #A30B20",
"V+	c #B9102A",
"W+	c #A40B22",
"X+	c #B30D28",
"Y+	c #B00E2C",
"Z+	c #B61132",
"`+	c #B61332",
" @	c #B1112D",
".@	c #B30E2A",
"+@	c #AA0921",
"@@	c #A0081C",
"#@	c #9F081C",
"$@	c #990719",
"%@	c #910515",
"&@	c #960517",
"*@	c #900413",
"=@	c #900412",
"-@	c #870310",
";@	c #81030D",
">@	c #B20D24",
",@	c #AD0D24",
"'@	c #AF0E25",
")@	c #BA0E27",
"!@	c #B40E26",
"~@	c #AF0C22",
"{@	c #B90D26",
"]@	c #B00D24",
"^@	c #BB0E28",
"/@	c #B40D25",
"(@	c #BD0D29",
"_@	c #C00E2C",
":@	c #BF102F",
"<@	c #C01232",
"[@	c #C31536",
"}@	c #C51535",
"|@	c #C1102F",
"1@	c #BF0D2B",
"2@	c #B80C26",
"3@	c #B90B25",
"4@	c #AF0B21",
"5@	c #A70A1F",
"6@	c #A1081C",
"7@	c #9B0618",
"8@	c #9D0617",
"9@	c #960414",
"0@	c #950514",
"a@	c #8D0411",
"b@	c #87030E",
"c@	c #AD0C22",
"d@	c #A00B1F",
"e@	c #A90D23",
"f@	c #9E0A1D",
"g@	c #A60B20",
"h@	c #A60A1E",
"i@	c #9F091B",
"j@	c #B10A20",
"k@	c #B10B21",
"l@	c #AF0A22",
"m@	c #B30C25",
"n@	c #AD0C25",
"o@	c #B20F2B",
"p@	c #B6112D",
"q@	c #B8102D",
"r@	c #AF0A23",
"s@	c #B20B24",
"t@	c #AE0920",
"u@	c #A4091D",
"v@	c #9E081B",
"w@	c #900514",
"x@	c #9B0515",
"y@	c #830410",
"z@	c #8A0311",
"A@	c #80030D",
"B@	c #B40C23",
"C@	c #AA0D21",
"D@	c #B00C21",
"E@	c #A80A1E",
"F@	c #B60C22",
"G@	c #B50A1F",
"H@	c #B3091F",
"I@	c #C50C24",
"J@	c #AD091E",
"K@	c #BD0B22",
"L@	c #B90B24",
"M@	c #C10E29",
"N@	c #B70D27",
"O@	c #C20F2C",
"P@	c #C1102E",
"Q@	c #BD0F2E",
"R@	c #BE0E2B",
"S@	c #BA0B27",
"T@	c #BA0B23",
"U@	c #B90922",
"V@	c #B70B21",
"W@	c #AB0A1F",
"X@	c #A8081C",
"Y@	c #9F0619",
"Z@	c #9A0617",
"`@	c #9A0415",
" #	c #8E0413",
".#	c #940411",
"+#	c #86030E",
"@#	c #80030B",
"##	c #AB0B1F",
"$#	c #A30A1D",
"%#	c #A2091B",
"&#	c #A0081B",
"*#	c #A20819",
"=#	c #A20617",
"-#	c #B90A1F",
";#	c #AC081D",
">#	c #A7081E",
",#	c #B70B23",
"'#	c #A6091F",
")#	c #AF0B23",
"!#	c #AB0B23",
"~#	c #A50A21",
"{#	c #AF0B25",
"]#	c #AA091F",
"^#	c #A7081D",
"/#	c #B1091E",
"(#	c #9A0719",
"_#	c #A2071A",
":#	c #81040E",
"<#	c #8B030F",
"[#	c #750209",
"}#	c #740209",
"|#	c #AA0A1D",
"1#	c #9A0718",
"2#	c #A7091A",
"3#	c #A6081A",
"4#	c #AC081B",
"5#	c #AD091C",
"6#	c #A00717",
"7#	c #B40A1E",
"8#	c #A7091D",
"9#	c #AC071B",
"0#	c #AC081E",
"a#	c #BB0A22",
"b#	c #A6071D",
"c#	c #AD081E",
"d#	c #AF0921",
"e#	c #B10C24",
"f#	c #B10A24",
"g#	c #A8081E",
"h#	c #B20920",
"i#	c #A5071C",
"j#	c #B8091E",
"k#	c #970616",
"l#	c #9E0618",
"m#	c #8E0412",
"n#	c #920413",
"o#	c #8B0511",
"p#	c #7E030C",
"q#	c #76030A",
"r#	c #6F0207",
"s#	c #A6091B",
"t#	c #9F081A",
"u#	c #AE091C",
"v#	c #A9091B",
"w#	c #B3091D",
"x#	c #B50A1E",
"y#	c #B80B1F",
"z#	c #B80B20",
"A#	c #AE091E",
"B#	c #BA0920",
"C#	c #AD081C",
"D#	c #B9091F",
"E#	c #B40920",
"F#	c #B80A21",
"G#	c #AE091F",
"H#	c #B20B23",
"I#	c #B20A21",
"J#	c #BF0B23",
"K#	c #B5091F",
"L#	c #AD081B",
"M#	c #9E0718",
"N#	c #920615",
"O#	c #940515",
"P#	c #900615",
"Q#	c #8A0511",
"R#	c #8A0411",
"S#	c #7C030E",
"T#	c #77030B",
"U#	c #9F0717",
"V#	c #9B0616",
"W#	c #930512",
"X#	c #A80818",
"Y#	c #A70719",
"Z#	c #A20718",
"`#	c #AE091D",
" $	c #A50619",
".$	c #AF081D",
"+$	c #AB071C",
"@$	c #A8071B",
"#$	c #A6081B",
"$$	c #9D081B",
"%$	c #9B091B",
"&$	c #B00B21",
"*$	c #B3091E",
"=$	c #A00617",
"-$	c #9D0616",
";$	c #880411",
">$	c #8C0512",
",$	c #810511",
"'$	c #850614",
")$	c #7C0510",
"!$	c #820410",
"~$	c #71040D",
"{$	c #69030B",
"]$	c #930917",
"^$	c #920815",
"/$	c #A30717",
"($	c #A30615",
"_$	c #AB0618",
":$	c #AA091A",
"<$	c #B00C20",
"[$	c #A50A1F",
"}$	c #A70A1D",
"|$	c #B50C23",
"1$	c #B30D23",
"2$	c #AF0E23",
"3$	c #A70C21",
"4$	c #A80C21",
"5$	c #B70D24",
"6$	c #980616",
"7$	c #8F0512",
"8$	c #8D0613",
"9$	c #870512",
"0$	c #7D0611",
"a$	c #830713",
"b$	c #7A0511",
"c$	c #7D0511",
"d$	c #6B040E",
"e$	c #62040D",
"f$	c #770914",
"g$	c #780712",
"h$	c #880A16",
"i$	c #800713",
"j$	c #95091A",
"k$	c #860816",
"l$	c #870818",
"m$	c #950B1C",
"n$	c #8A0B1C",
"o$	c #930B1D",
"p$	c #880A1B",
"q$	c #A10E22",
"r$	c #9A0F23",
"s$	c #A81127",
"t$	c #960E20",
"u$	c #9D0D23",
"v$	c #8C0B1E",
"w$	c #94071A",
"x$	c #870615",
"y$	c #8F0716",
"z$	c #7E0611",
"A$	c #8B0713",
"B$	c #78040E",
"C$	c #6F050E",
"D$	c #7A050F",
"E$	c #69040D",
"F$	c #7A040F",
"G$	c #6E040E",
"H$	c #68040C",
"I$	c #890A17",
"J$	c #820813",
"K$	c #920917",
"L$	c #860814",
"M$	c #9C091B",
"N$	c #910919",
"O$	c #950919",
"P$	c #9A0B1C",
"Q$	c #900B1C",
"R$	c #980B1C",
"S$	c #9E0C20",
"T$	c #A50E22",
"U$	c #A30D21",
"V$	c #9B0C1E",
"W$	c #A40A22",
"X$	c #9F0B21",
"Y$	c #9A091D",
"Z$	c #9D071B",
"`$	c #880513",
" %	c #900715",
".%	c #890612",
"+%	c #7E0410",
"@%	c #7D0510",
"#%	c #84050F",
"$%	c #72040B",
"%%	c #7B040E",
"&%	c #6E040C",
"*%	c #76040C",
"=%	c #9B0818",
"-%	c #9D0B19",
";%	c #9D0918",
">%	c #950917",
",%	c #A20A1B",
"'%	c #970819",
")%	c #A10B1D",
"!%	c #9A0C1E",
"~%	c #A10B1E",
"{%	c #A40C20",
"]%	c #A90D21",
"^%	c #A30C21",
"/%	c #AA0B21",
"(%	c #B30C24",
"_%	c #A50A20",
":%	c #B20B25",
"<%	c #A3071A",
"[%	c #940717",
"}%	c #9D0819",
"|%	c #900815",
"1%	c #930714",
"2%	c #8E0614",
"3%	c #8B0410",
"4%	c #88040E",
"5%	c #89040E",
"6%	c #7E030B",
"7%	c #7A0307",
"8%	c #980816",
"9%	c #8A0814",
"0%	c #9B0A18",
"a%	c #920817",
"b%	c #A00A1B",
"c%	c #890715",
"d%	c #9F0A1C",
"e%	c #950B1B",
"f%	c #9B0B1C",
"g%	c #A50C20",
"h%	c #A00B1E",
"i%	c #9E0B1E",
"j%	c #A1091F",
"k%	c #99081B",
"l%	c #AB0A22",
"m%	c #98081A",
"n%	c #990718",
"o%	c #8E0616",
"p%	c #920715",
"q%	c #8A0613",
"r%	c #7F0610",
"s%	c #88040F",
"t%	c #730309",
"u%	c #7A0208",
"v%	c #700206",
"w%	c #730206",
"x%	c #9E0917",
"y%	c #A00917",
"z%	c #A30818",
"A%	c #9F0818",
"B%	c #A50A1B",
"C%	c #AA0B1E",
"D%	c #A20A1C",
"E%	c #AB0B1D",
"F%	c #A10B1C",
"G%	c #A90B1F",
"H%	c #AF0C20",
"I%	c #B10D21",
"J%	c #AB0A1E",
"K%	c #AD0A1F",
"L%	c #B20B22",
"M%	c #B80C25",
"N%	c #BA0C26",
"O%	c #A80B1F",
"P%	c #AA091C",
"Q%	c #A60719",
"R%	c #A20716",
"S%	c #950612",
"T%	c #950512",
"U%	c #8E0611",
"V%	c #8F0410",
"W%	c #91030E",
"X%	c #87030A",
"Y%	c #840208",
"Z%	c #790205",
"`%	c #7F0206",
" &	c #970715",
".&	c #8C0711",
"+&	c #970814",
"@&	c #8F0613",
"#&	c #970716",
"$&	c #910615",
"%&	c #8C0714",
"&&	c #9E0919",
"*&	c #9C0919",
"=&	c #9D091A",
"-&	c #A10919",
";&	c #990918",
">&	c #A80A1F",
",&	c #980719",
"'&	c #980615",
")&	c #990616",
"!&	c #82040E",
"~&	c #89050F",
"{&	c #82040D",
"]&	c #7C040C",
"^&	c #86030B",
"/&	c #7B0308",
"(&	c #7B0207",
"_&	c #730204",
":&	c #720204",
"<&	c #A00715",
"[&	c #83060E",
"}&	c #990713",
"|&	c #8F0612",
"1&	c #990715",
"2&	c #910614",
"3&	c #A20919",
"4&	c #960817",
"5&	c #9E0918",
"6&	c #9D0717",
"7&	c #A6071A",
"8&	c #A1071B",
"9&	c #9E091C",
"0&	c #B20B20",
"a&	c #990818",
"b&	c #A20717",
"c&	c #8E0512",
"d&	c #970512",
"e&	c #8B050F",
"f&	c #87050E",
"g&	c #87040D",
"h&	c #88030D",
"i&	c #8A040C",
"j&	c #83030A",
"k&	c #800207",
"l&	c #7B0206",
"m&	c #750205",
"n&	c #9E0714",
"o&	c #970713",
"p&	c #A50816",
"q&	c #9A0714",
"r&	c #A70817",
"s&	c #A00716",
"t&	c #A60817",
"u&	c #AB0919",
"v&	c #A90A19",
"w&	c #B00919",
"x&	c #A20917",
"y&	c #B3091A",
"z&	c #A80819",
"A&	c #B7091C",
"B&	c #B0071D",
"C&	c #AE0A1E",
"D&	c #AB081C",
"E&	c #A70718",
"F&	c #9E0717",
"G&	c #9E0614",
"H&	c #8B0611",
"I&	c #930610",
"J&	c #8A050E",
"K&	c #91030D",
"L&	c #8B040C",
"M&	c #850309",
"N&	c #840307",
"O&	c #9D0612",
"P&	c #8F060F",
"Q&	c #9C0613",
"R&	c #890510",
"S&	c #9D0714",
"T&	c #9F0715",
"U&	c #9E0916",
"V&	c #A80A1A",
"W&	c #990917",
"X&	c #B40A1A",
"Y&	c #9C0918",
"Z&	c #A60919",
"`&	c #AC0919",
" *	c #AF091B",
".*	c #AC0B1E",
"+*	c #9C091A",
"@*	c #9F0819",
"#*	c #A00818",
"$*	c #9C0714",
"%*	c #8C0611",
"&*	c #85040D",
"**	c #86030A",
"=*	c #790206",
"-*	c #6D0204",
";*	c #620202",
">*	c #A50411",
",*	c #9D0611",
"'*	c #A60814",
")*	c #AA0816",
"!*	c #B30919",
"~*	c #B80A1C",
"{*	c #A90B19",
"]*	c #B70B1B",
"^*	c #B00B1B",
"/*	c #C00D1E",
"(*	c #B10B1B",
"_*	c #BC0B1D",
":*	c #BE0B1F",
"<*	c #BB0B1E",
"[*	c #B70C20",
"}*	c #B70D21",
"|*	c #BB0C21",
"1*	c #B80B1E",
"2*	c #AB091A",
"3*	c #AC0818",
"4*	c #A80715",
"5*	c #9A0712",
"6*	c #9A0610",
"7*	c #94040D",
"8*	c #88030A",
"9*	c #860308",
"0*	c #850206",
"a*	c #660202",
"b*	c #98040E",
"c*	c #8D040E",
"d*	c #9D0713",
"e*	c #8F0711",
"f*	c #A60815",
"g*	c #A10816",
"h*	c #940714",
"i*	c #A80A17",
"j*	c #9E0816",
"k*	c #B10B19",
"l*	c #A40A18",
"m*	c #AB0918",
"n*	c #AB0818",
"o*	c #A70918",
"p*	c #A20918",
"q*	c #A3091A",
"r*	c #AB0A1D",
"s*	c #970714",
"t*	c #9D0512",
"u*	c #960510",
"v*	c #89050D",
"w*	c #82040C",
"x*	c #7B0307",
"y*	c #770206",
"z*	c #830207",
"A*	c #6C0203",
"B*	c #700103",
"C*	c #5D0102",
"D*	c #580203",
"E*	c #9B030C",
"F*	c #89030A",
"G*	c #95030C",
"H*	c #87040B",
"I*	c #9E050F",
"J*	c #990610",
"K*	c #B80613",
"L*	c #A90611",
"M*	c #A40612",
"N*	c #AC0612",
"O*	c #95050F",
"P*	c #A50513",
"Q*	c #A60516",
"R*	c #A50615",
"S*	c #9B0512",
"T*	c #94050E",
"U*	c #98030D",
"V*	c #8F030B",
"W*	c #810308",
"X*	c #7F0207",
"Y*	c #760105",
"Z*	c #6B0204",
"`*	c #700104",
" =	c #630103",
".=	c #610102",
"+=	c #4D0102",
"@=	c #4A0102",
"  . + @ # $ % & * = - ; > , ' ) ! ~ { ] ^ / ( _ : < [ } | 1 ",
"2 3 4 5 6 7 8 9 0 a b c d e f g h i j k l m n o p q r s t u ",
"v w x n y z n A B C D E F G H I J K L M N O P Q R S T U V W ",
"X Y Z `  ...+.@.#.$.%.&.*.=.-.;.>.,.'.).!.~.{.].^./.(._.:.<.",
"[.}.|.1.2.3.4.5.6.7.8.9.0.a.b.c.d.e.f.g.S h.i.j.k.l.m.n.o.p.",
"q.r.s.t.u.v.w.x.y.z.A.B.C.D.E.F.G.H.I.J.K.L.M.N.O.P.Q.R.S.T.",
"U.V.W.X.Y.Z.`.w. +.+++@+#+I.$+%+&+*+=+-+;+>+,+'+)+!+~+{+]+^+",
"/+(+_+:+<+[+}+|+<+1+2+3+4+5+6+7+8+9+0+a+b+c+d+e+f+f+g+h+i+j+",
"k+l+m+n+o+p+q+<+r+s+t+u+v+w+x+y+z+A+B+C+D+E+F+G+H+I+J+K+L+M+",
"<+N+O+P+Q+R+S+T+U+V+W+b+X+C+Y+Z+`+ @.@M.+@@@#@$@%@&@*@=@-@;@",
">@,@'@R+)@!@~@{@]@^@/@(@_@:@<@[@}@|@1@2@3@4@5@6@7@8@9@0@a@b@",
"c@d@e@f@g@h@i@j@O.k@l@m@n@.@o@p@q@X+r@s@t@u@v@)+w@x@y@z@A@;@",
"B@C@D@E@F@G@H@I@J@K@L@M@N@O@P@Q@R@S@T@U@V@W@X@Y@Z@`@ #.#+#@#",
"##$#%#&#X@*#=#-#%#;#>#,#'#)#!#~#{#]#^#t@/#(#_#K+w@^+:#<#[#}#",
"|#1#2#3#4#5#6#7#8#9#0#a#b#c#d#e#f#g#h#i#j#k#l#m#n#o#p#+#q#r#",
"s#t#u#v#w#x#y#z#A#B#C#D#E#F#G#H#L@I#J#K#L#M#8@N#O#P#Q#R#S#T#",
"U#O#V#W#X#Y#Z#`#t# $.$+$@$#$$$%$&$%$*$=$-$;$>$;$,$'$)$!$~${$",
"]$^$/$($_$:$`#<$[$5@}$|$1$2$3$4$5$.+@$6$V#7$8$9$0$a$b$c$d$e$",
"f$g$h$i$j$k$l$m$n$o$p$q$r$s$t$u$@.v$w$x$y$z$A$B$C$D$E$F$G$H$",
"I$J$K$L$M$N$O$P$Q$R$S$S$T$U$V$W$X$Y$Z$`$ %D$.%+%@%#%$%%%&%*%",
"=%-%;%>%,%'%'%)%!%~%{%]%^%/%(%_%:%@@<%[%}%|%1%2%o#3%4%5%6%7%",
"8%9%0%a%b%O$c%d%e%f%~%g%h%i%j%k%l%m%n%o%p%q%9$r%L+s%t%u%v%w%",
"x%y%z%A%B%C%D%E%F%G%H%I%J%K%L%M%N%O%P%Q%R%S%T%U%V%W%X%Y%Z%`%",
" &.&+&@&#&$&%&&&j$*&=&-&;&_#8#$$>&,&'&)&W#!&~&{&]&^&/&(&_&:&",
"<&[&}&|&'&1&2&3&|%2#4&5&6&7&8&9&0&a&b&c&d&e&f&g&h&i&j&k&l&m&",
"n&o&p&q&r&s&t&u&v&w&x&y&z&A&B&J%C&D&E&F&G&H&I&J&K&L&M&N&Z%_&",
"O&P&Q&R&S&T&U&V&W&X&Y&Z&`& *.*|#C%+*@*#*$*%*J&&*^&**=*k&-*;*",
">*,*'*)*!*~*{*]*^*/*(*_*:*<*[*}*|*1*2*3*4*5*6*7*8*9*Y%0*_&a*",
"b*c*d*e*f*g*h*i*j*k*l*m*n*o*p*q*r*6#s*t*u*v*w*x*y*z*A*B*C*D*",
"E*F*G*H*I*I*J*K*I&L*M*N*O*P*t*Q*R*S*T*U*V*W*X*Y*Z*`* =.=+=@="};
