/* XPM */
static char * exit_xpm[] = {
"30 30 882 2",
"  	c #237AB1",
". 	c #2389D5",
"+ 	c #2E8ED9",
"@ 	c #3894DA",
"# 	c #4FA3E5",
"$ 	c #354D74",
"% 	c #3C5D8B",
"& 	c #367DC4",
"* 	c #2A85CA",
"= 	c #168ED4",
"- 	c #168DDA",
"; 	c #1B8EDC",
"> 	c #52A7DF",
", 	c #66B6E9",
"' 	c #1A70B7",
") 	c #1B72BB",
"! 	c #419DE4",
"~ 	c #3C9FE6",
"{ 	c #1D8BD4",
"] 	c #188CD3",
"^ 	c #0E7BC4",
"/ 	c #117AC5",
"( 	c #0F78C4",
"_ 	c #0E7CCD",
": 	c #1E8BDC",
"< 	c #1F8BDB",
"[ 	c #218AD8",
"} 	c #329AE4",
"| 	c #3BA1E9",
"1 	c #2272AB",
"2 	c #1886D4",
"3 	c #1590EB",
"4 	c #5391DE",
"5 	c #485B81",
"6 	c #42556A",
"7 	c #4CB16A",
"8 	c #4EA36A",
"9 	c #3E4B69",
"0 	c #466FA3",
"a 	c #1D97E5",
"b 	c #2FA7FA",
"c 	c #3EA7FA",
"d 	c #3298E6",
"e 	c #2386D3",
"f 	c #0575C8",
"g 	c #34A4F3",
"h 	c #269EEC",
"i 	c #3C9DE4",
"j 	c #4093DE",
"k 	c #4588D3",
"l 	c #3E87D6",
"m 	c #017BD4",
"n 	c #0580DA",
"o 	c #088FF0",
"p 	c #0990F0",
"q 	c #0B91EE",
"r 	c #25A1F7",
"s 	c #29A1F3",
"t 	c #1385DA",
"u 	c #1076C2",
"v 	c #1D83D4",
"w 	c #2A87E2",
"x 	c #4B627D",
"y 	c #4AAC68",
"z 	c #2A924D",
"A 	c #2D9A54",
"B 	c #36A15B",
"C 	c #4CB672",
"D 	c #4B9866",
"E 	c #577BA8",
"F 	c #4A98E5",
"G 	c #2E91E8",
"H 	c #1E81DA",
"I 	c #127FD3",
"J 	c #3297E6",
"K 	c #3AA3F0",
"L 	c #378DD6",
"M 	c #3D4957",
"N 	c #3E4854",
"O 	c #3E4853",
"P 	c #496DA0",
"Q 	c #2B84DC",
"R 	c #268EE8",
"S 	c #0692ED",
"T 	c #0594EC",
"U 	c #0696EA",
"V 	c #1E96EC",
"W 	c #1990E5",
"X 	c #0581D6",
"Y 	c #1073BC",
"Z 	c #568FD2",
"` 	c #406392",
" .	c #236D3F",
"..	c #288044",
"+.	c #247C41",
"@.	c #237D41",
"#.	c #237E40",
"$.	c #288949",
"%.	c #3CA65B",
"&.	c #479163",
"*.	c #5A779F",
"=.	c #3480D2",
"-.	c #0A7CD5",
";.	c #428CD8",
">.	c #3D5A79",
",.	c #3A424B",
"'.	c #3B5E4D",
").	c #52B970",
"!.	c #4EB771",
"~.	c #4EB76E",
"{.	c #448F5F",
"].	c #36474F",
"^.	c #4F7EB8",
"/.	c #2C92E7",
"(.	c #0893EC",
"_.	c #0A8DE6",
":.	c #0980DB",
"<.	c #0685DB",
"[.	c #0787DB",
"}.	c #1377BF",
"|.	c #4A6990",
"1.	c #2B6440",
"2.	c #257547",
"3.	c #2D4547",
"4.	c #2E3A48",
"5.	c #2E4C46",
"6.	c #237943",
"7.	c #238847",
"8.	c #29924D",
"9.	c #316946",
"0.	c #356EB1",
"a.	c #588FD5",
"b.	c #3C5C7D",
"c.	c #268C46",
"d.	c #249148",
"e.	c #25924A",
"f.	c #2B994D",
"g.	c #29984A",
"h.	c #269547",
"i.	c #3FAB5E",
"j.	c #3D7F55",
"k.	c #3F82C7",
"l.	c #1190EA",
"m.	c #0878D7",
"n.	c #0A76D6",
"o.	c #017BD5",
"p.	c #027DD3",
"q.	c #1375BF",
"r.	c #476A95",
"s.	c #363E51",
"t.	c #2F4056",
"u.	c #5286CB",
"v.	c #3B86D8",
"w.	c #3A7FCA",
"x.	c #3D78B5",
"y.	c #254D2F",
"z.	c #1D7A40",
"A.	c #1E7E40",
"B.	c #275B36",
"C.	c #587AA7",
"D.	c #49667D",
"E.	c #2E8547",
"F.	c #229448",
"G.	c #1C7E3C",
"H.	c #1E7B41",
"I.	c #247740",
"J.	c #22753D",
"K.	c #21743D",
"L.	c #23773F",
"M.	c #247640",
"N.	c #2C483B",
"O.	c #3174BA",
"P.	c #1478CD",
"Q.	c #047BD6",
"R.	c #0284DE",
"S.	c #0392E8",
"T.	c #148BD4",
"U.	c #3983CA",
"V.	c #2983D6",
"W.	c #1A7CD2",
"X.	c #247DD0",
"Y.	c #5586C1",
"Z.	c #314542",
"`.	c #2A4E3D",
" +	c #196733",
".+	c #196F37",
"++	c #1B7A3E",
"@+	c #1C7740",
"#+	c #27543A",
"$+	c #2B8346",
"%+	c #27954E",
"&+	c #248C48",
"*+	c #23743C",
"=+	c #23573B",
"-+	c #2E4A6F",
";+	c #2D4A6B",
">+	c #2D4B69",
",+	c #304F6D",
"'+	c #31526E",
")+	c #304D69",
"!+	c #2F4566",
"~+	c #34476B",
"{+	c #4282CA",
"]+	c #0789E2",
"^+	c #0A93ED",
"/+	c #0493EC",
"(+	c #158ED9",
"_+	c #1775C2",
":+	c #0277D3",
"<+	c #0F78D3",
"[+	c #4D81C8",
"}+	c #3F655A",
"|+	c #289649",
"1+	c #26974A",
"2+	c #239348",
"3+	c #208243",
"4+	c #19713C",
"5+	c #146D39",
"6+	c #126030",
"7+	c #1F8740",
"8+	c #24924B",
"9+	c #46B26A",
"0+	c #4CB46B",
"a+	c #3F6866",
"b+	c #4A8DD9",
"c+	c #4B98DD",
"d+	c #26A3EF",
"e+	c #2996E4",
"f+	c #2B96E7",
"g+	c #1D87E1",
"h+	c #0480DD",
"i+	c #0989E6",
"j+	c #068BE8",
"k+	c #0291EC",
"l+	c #0393ED",
"m+	c #058EEB",
"n+	c #1183D0",
"o+	c #1878C3",
"p+	c #217BD3",
"q+	c #5282C4",
"r+	c #416D68",
"s+	c #49B06D",
"t+	c #24984B",
"u+	c #238C45",
"v+	c #1D7B3E",
"w+	c #1C7A40",
"x+	c #1B7840",
"y+	c #156F3A",
"z+	c #136833",
"A+	c #19773A",
"B+	c #1A7C3D",
"C+	c #197C3D",
"D+	c #28924E",
"E+	c #46AB66",
"F+	c #2D573C",
"G+	c #49747E",
"H+	c #419AE0",
"I+	c #0B7BD2",
"J+	c #047CD8",
"K+	c #0282E3",
"L+	c #0186E5",
"M+	c #0692F1",
"N+	c #0895F2",
"O+	c #0692EE",
"P+	c #068DE9",
"Q+	c #0684E2",
"R+	c #0974C3",
"S+	c #387FC7",
"T+	c #5582C5",
"U+	c #4B746E",
"V+	c #4CAD67",
"W+	c #28984D",
"X+	c #228C46",
"Y+	c #1E7D3F",
"Z+	c #1E773E",
"`+	c #206E3C",
" @	c #19723B",
".@	c #1B753C",
"+@	c #1C7A3E",
"@@	c #1A783B",
"#@	c #1D733A",
"$@	c #1C793D",
"%@	c #1D7A3D",
"&@	c #1F7D3E",
"*@	c #2B9A4D",
"=@	c #45A65F",
"-@	c #527B81",
";@	c #4783C8",
">@	c #038EE4",
",@	c #0293EA",
"'@	c #0896EE",
")@	c #078FE9",
"!@	c #088FE8",
"~@	c #0483DE",
"{@	c #027BD8",
"]@	c #0075D2",
"^@	c #0B73C1",
"/@	c #438CD2",
"(@	c #4C5E7A",
"_@	c #53AB69",
":@	c #2D954C",
"<@	c #248B45",
"[@	c #1F7A44",
"}@	c #1F7740",
"|@	c #316555",
"1@	c #3E5E69",
"2@	c #24783D",
"3@	c #218745",
"4@	c #1F763F",
"5@	c #656535",
"6@	c #76612B",
"7@	c #33703B",
"8@	c #1C7A3D",
"9@	c #1B7B3D",
"0@	c #1C813F",
"a@	c #349A51",
"b@	c #42A05F",
"c@	c #4A7A8F",
"d@	c #2C7EC4",
"e@	c #1A84D1",
"f@	c #1F92E4",
"g@	c #37B0FC",
"h@	c #0B84DA",
"i@	c #037FD6",
"j@	c #017AD3",
"k@	c #0176D2",
"l@	c #0F76C3",
"m@	c #5E85BC",
"n@	c #4C7F73",
"o@	c #47A261",
"p@	c #238244",
"q@	c #1B7C3D",
"r@	c #1C7940",
"s@	c #316757",
"t@	c #4F80AE",
"u@	c #4B7AAE",
"v@	c #2C6B3C",
"w@	c #208946",
"x@	c #1C6938",
"y@	c #995C2C",
"z@	c #B66025",
"A@	c #82622E",
"B@	c #237138",
"C@	c #25683A",
"D@	c #1F7840",
"E@	c #207D45",
"F@	c #359756",
"G@	c #3F985C",
"H@	c #39804D",
"I@	c #305234",
"J@	c #4F89CC",
"K@	c #1B86DB",
"L@	c #077CD3",
"M@	c #047BD2",
"N@	c #0481DA",
"O@	c #0E8CE7",
"P@	c #1A84D0",
"Q@	c #495D83",
"R@	c #408D58",
"S@	c #2A854E",
"T@	c #1E7940",
"U@	c #266138",
"V@	c #2D614B",
"W@	c #4C7CB0",
"X@	c #5491CE",
"Y@	c #4C758C",
"Z@	c #2A793E",
"`@	c #1F8545",
" #	c #1B6939",
".#	c #955E2A",
"+#	c #BD6926",
"@#	c #B05E24",
"##	c #34523C",
"$#	c #4F6B8A",
"%#	c #26653D",
"&#	c #1C7942",
"*#	c #1B7940",
"=#	c #37894E",
"-#	c #479859",
";#	c #457F86",
">#	c #4588D2",
",#	c #0473CD",
"'#	c #0279D4",
")#	c #0680DB",
"!#	c #068EE7",
"~#	c #0492E8",
"{#	c #1181CD",
"]#	c #22683E",
"^#	c #28633D",
"/#	c #2B5D3D",
"(#	c #5180A4",
"_#	c #3C6A9F",
":#	c #237BCD",
"<#	c #4A78B3",
"[#	c #285A36",
"}#	c #1F8440",
"|#	c #1D7B41",
"1#	c #225D35",
"2#	c #95562B",
"3#	c #BD692A",
"4#	c #BB6426",
"5#	c #804C42",
"6#	c #5D76A3",
"7#	c #536D8F",
"8#	c #275D38",
"9#	c #295C37",
"0#	c #456772",
"a#	c #57719F",
"b#	c #4A7EBB",
"c#	c #0377CE",
"d#	c #017FD9",
"e#	c #058EE6",
"f#	c #0A92EC",
"g#	c #0285E0",
"h#	c #0777C3",
"i#	c #4A5C82",
"j#	c #264A36",
"k#	c #3F6A93",
"l#	c #457BAC",
"m#	c #65BFF3",
"n#	c #147EC7",
"o#	c #0177C9",
"p#	c #4476B2",
"q#	c #275033",
"r#	c #1E793E",
"s#	c #23673B",
"t#	c #316487",
"u#	c #755662",
"v#	c #B7652D",
"w#	c #C46A29",
"x#	c #B36127",
"y#	c #3C435F",
"z#	c #5DA0D6",
"A#	c #5683A7",
"B#	c #4E7EAB",
"C#	c #457AB7",
"D#	c #067ACB",
"E#	c #027ACD",
"F#	c #007AD0",
"G#	c #007DD5",
"H#	c #0492E9",
"I#	c #039DF0",
"J#	c #038CE5",
"K#	c #0179D7",
"L#	c #0D73C3",
"M#	c #4D74AC",
"N#	c #3F6EA7",
"O#	c #49A4DE",
"P#	c #56BBF2",
"Q#	c #117DCC",
"R#	c #0477CB",
"S#	c #0175CE",
"T#	c #3F73B3",
"U#	c #23512F",
"V#	c #20693A",
"W#	c #466882",
"X#	c #468ED2",
"Y#	c #425D84",
"Z#	c #A6592E",
"`#	c #BB6125",
" $	c #B6642C",
".$	c #A27661",
"+$	c #567EA8",
"@$	c #1B7CCB",
"#$	c #0777D3",
"$$	c #0275CF",
"%$	c #0078D1",
"&$	c #007CD3",
"*$	c #007ED5",
"=$	c #048FE6",
"-$	c #0298EB",
";$	c #039AED",
">$	c #048AE3",
",$	c #0176D4",
"'$	c #106CC1",
")$	c #1E73C2",
"!$	c #0C8CE5",
"~$	c #40B2ED",
"{$	c #5BBDF1",
"]$	c #0778CC",
"^$	c #0378CF",
"/$	c #0175CF",
"($	c #3D71B3",
"_$	c #243A29",
":$	c #2C6989",
"<$	c #318DE1",
"[$	c #0E95F2",
"}$	c #3F5C85",
"|$	c #9E542D",
"1$	c #B86224",
"2$	c #BE6B2D",
"3$	c #D28E64",
"4$	c #45516F",
"5$	c #1F7BD0",
"6$	c #0175D6",
"7$	c #0076D6",
"8$	c #0484E3",
"9$	c #058FEB",
"0$	c #0392EB",
"a$	c #0697EE",
"b$	c #0595EB",
"c$	c #0A94EC",
"d$	c #0989E4",
"e$	c #097FDA",
"f$	c #399BEA",
"g$	c #1D78C1",
"h$	c #3AA9EC",
"i$	c #3EA9E8",
"j$	c #3899E2",
"k$	c #0777CD",
"l$	c #0277CF",
"m$	c #0076D0",
"n$	c #2C7DD0",
"o$	c #3579BC",
"p$	c #278BD7",
"q$	c #0095F8",
"r$	c #0F8FF8",
"s$	c #3D5D86",
"t$	c #A0522C",
"u$	c #C16827",
"v$	c #C56D29",
"w$	c #BF7645",
"x$	c #435270",
"y$	c #2B7DD6",
"z$	c #007BD7",
"A$	c #0485E9",
"B$	c #048EF0",
"C$	c #0295F3",
"D$	c #0097F2",
"E$	c #0295EE",
"F$	c #0A91EC",
"G$	c #239BF3",
"H$	c #1F92EA",
"I$	c #0781D9",
"J$	c #319FEA",
"K$	c #1A75C3",
"L$	c #58B8F5",
"M$	c #47A6E4",
"N$	c #0374CB",
"O$	c #0775CD",
"P$	c #0277D0",
"Q$	c #0481D9",
"R$	c #0A8DDE",
"S$	c #0593E9",
"T$	c #0096F2",
"U$	c #0295F8",
"V$	c #1EA1F4",
"W$	c #41A1DF",
"X$	c #695A6E",
"Y$	c #AC5D27",
"Z$	c #B36025",
"`$	c #B46631",
" %	c #B27B65",
".%	c #4A6C9F",
"+%	c #0282DF",
"@%	c #0693F3",
"#%	c #0494F2",
"$%	c #0294F1",
"%%	c #0195F3",
"&%	c #0198F0",
"*%	c #1097ED",
"=%	c #2E9EF2",
"-%	c #2796EC",
";%	c #0380D9",
">%	c #1584CE",
",%	c #1A79C7",
"'%	c #5EB9F7",
")%	c #49A6E5",
"!%	c #0475CB",
"~%	c #0976CF",
"{%	c #0276D0",
"]%	c #098AE5",
"^%	c #0890EF",
"/%	c #0693F5",
"(%	c #0493F7",
"_%	c #1798EA",
":%	c #4CC3F7",
"<%	c #3EA9E3",
"[%	c #314A72",
"}%	c #A95327",
"|%	c #BF6826",
"1%	c #C37137",
"2%	c #C98962",
"3%	c #37557F",
"4%	c #0D93F1",
"5%	c #0493EF",
"6%	c #0595EF",
"7%	c #0994EC",
"8%	c #169BEA",
"9%	c #34B0FB",
"0%	c #218BE4",
"a%	c #0D7EDB",
"b%	c #0F89E3",
"c%	c #0E78C5",
"d%	c #248CD2",
"e%	c #62BDF9",
"f%	c #0576CD",
"g%	c #0A74D3",
"h%	c #037AD7",
"i%	c #068AE8",
"j%	c #0293F6",
"k%	c #0894F4",
"l%	c #1192EC",
"m%	c #5CC2FD",
"n%	c #3394DE",
"o%	c #067CCD",
"p%	c #304972",
"q%	c #A85427",
"r%	c #C46A27",
"s%	c #C46C2D",
"t%	c #B46B3C",
"u%	c #3F5C84",
"v%	c #3899EC",
"w%	c #0494EE",
"x%	c #0696EF",
"y%	c #209BEA",
"z%	c #56C5FF",
"A%	c #1F81D7",
"B%	c #0E78DB",
"C%	c #0576D4",
"D%	c #017BD6",
"E%	c #0B75C2",
"F%	c #258FD1",
"G%	c #60C0F9",
"H%	c #4AA7E4",
"I%	c #0278CE",
"J%	c #0379D4",
"K%	c #0387E1",
"L%	c #209DEE",
"M%	c #4FBAFC",
"N%	c #3B96DB",
"O%	c #1981DA",
"P%	c #057AD5",
"Q%	c #304A72",
"R%	c #A65526",
"S%	c #B15D25",
"T%	c #B25D23",
"U%	c #B76A37",
"V%	c #B67D5C",
"W%	c #436FA5",
"X%	c #0293EB",
"Y%	c #0493E9",
"Z%	c #30A9F0",
"`%	c #46BEF5",
" &	c #2D91CB",
".&	c #1178CC",
"+&	c #0874D5",
"@&	c #0177D3",
"#&	c #0872BF",
"$&	c #3B9FE2",
"%&	c #43A3E7",
"&&	c #308ED2",
"*&	c #0179CF",
"=&	c #017ED7",
"-&	c #0394EB",
";&	c #0098EF",
">&	c #0097F3",
",&	c #2C9EEC",
"'&	c #64C2FF",
")&	c #1A7DCC",
"!&	c #0579CB",
"~&	c #2885D2",
"{&	c #425174",
"]&	c #A45725",
"^&	c #BE692B",
"/&	c #BF6929",
"(&	c #C8763B",
"_&	c #C2815A",
":&	c #3C6598",
"<&	c #39ACF2",
"[&	c #47ACEA",
"}&	c #41A8E2",
"|&	c #35A6DF",
"1&	c #0680C3",
"2&	c #0277C8",
"3&	c #0375CF",
"4&	c #0276D3",
"5&	c #0179D3",
"6&	c #127DCA",
"7&	c #52AEF4",
"8&	c #2085D9",
"9&	c #0972C8",
"0&	c #0478D1",
"a&	c #0280DA",
"b&	c #0495F0",
"c&	c #0097F1",
"d&	c #30A2F1",
"e&	c #61BFFC",
"f&	c #1A80D2",
"g&	c #3682D0",
"h&	c #55638A",
"i&	c #AC6435",
"j&	c #B26025",
"k&	c #C36E2A",
"l&	c #C36D28",
"m&	c #C56E29",
"n&	c #AC6431",
"o&	c #556889",
"p&	c #60ADE6",
"q&	c #67BDF8",
"r&	c #3F9DE5",
"s&	c #067AD6",
"t&	c #0479D2",
"u&	c #0278CC",
"v&	c #0078CD",
"w&	c #007AD3",
"x&	c #0286DD",
"y&	c #1C8BD5",
"z&	c #56ACF1",
"A&	c #1B82DB",
"B&	c #0673D0",
"C&	c #097ED9",
"D&	c #0B93EE",
"E&	c #0395F2",
"F&	c #0498EF",
"G&	c #4A99E0",
"H&	c #5E9FDF",
"I&	c #5785CB",
"J&	c #607096",
"K&	c #C57F3D",
"L&	c #E48E2B",
"M&	c #E69137",
"N&	c #E59337",
"O&	c #E5902E",
"P&	c #E39539",
"Q&	c #E3933A",
"R&	c #BB8146",
"S&	c #617395",
"T&	c #4781C8",
"U&	c #5085CB",
"V&	c #3982DF",
"W&	c #1589E9",
"X&	c #047BD1",
"Y&	c #027AD2",
"Z&	c #0389E2",
"`&	c #1A8DD8",
" *	c #53ADF2",
".*	c #1A83D8",
"+*	c #0475CD",
"@*	c #0380D8",
"#*	c #0797F2",
"$*	c #2D96EF",
"%*	c #5B93D9",
"&*	c #5B98DB",
"**	c #6784B1",
"=*	c #645949",
"-*	c #64584A",
";*	c #C8A554",
">*	c #F1C050",
",*	c #F0C254",
"'*	c #F5D48A",
")*	c #F6D689",
"!*	c #F2C460",
"~*	c #F9D78F",
"{*	c #FAD68C",
"]*	c #F9DA90",
"^*	c #C6AD78",
"/*	c #665F51",
"(*	c #665F4F",
"_*	c #5A89C5",
":*	c #3B7DCC",
"<*	c #357BCA",
"[*	c #1C84DF",
"}*	c #0793EF",
"|*	c #0496F0",
"1*	c #1D8DD8",
"2*	c #398CD5",
"3*	c #0E7BD1",
"4*	c #0B82DB",
"5*	c #458FD9",
"6*	c #5D8BCC",
"7*	c #715C3B",
"8*	c #715B3D",
"9*	c #B08F4D",
"0*	c #F4CB72",
"a*	c #F4CB71",
"b*	c #F4D278",
"c*	c #F3C75F",
"d*	c #F3D181",
"e*	c #F5C358",
"f*	c #F7D283",
"g*	c #F6C767",
"h*	c #F7D282",
"i*	c #F8C967",
"j*	c #FAD98C",
"k*	c #F9D88D",
"l*	c #F8D78B",
"m*	c #F8D889",
"n*	c #A69266",
"o*	c #725E43",
"p*	c #706858",
"q*	c #4485C9",
"r*	c #418EDD",
"s*	c #1497F7",
"t*	c #39A2E9",
"u*	c #2076BC",
"v*	c #0676CD",
"w*	c #0D7DD3",
"x*	c #4984CC",
"y*	c #7D6553",
"z*	c #95723B",
"A*	c #F5BF46",
"B*	c #F5BE4A",
"C*	c #F4C769",
"D*	c #F2CC73",
"E*	c #F2CC74",
"F*	c #F3C86A",
"G*	c #F3BF4C",
"H*	c #F5BE48",
"I*	c #F3C051",
"J*	c #F6D37F",
"K*	c #F2C55E",
"L*	c #F5D27E",
"M*	c #F6C863",
"N*	c #F5CD75",
"O*	c #F6CE74",
"P*	c #F6D080",
"Q*	c #F6C86A",
"R*	c #F4D084",
"S*	c #897045",
"T*	c #756C73",
"U*	c #4A8FDC",
"V*	c #46ACF0",
"W*	c #2172C1",
"X*	c #2379CF",
"Y*	c #5187C5",
"Z*	c #87745C",
"`*	c #EDB944",
" =	c #F0BF4B",
".=	c #F3BE4E",
"+=	c #F3BE50",
"@=	c #F3BE4D",
"#=	c #F1C04B",
"$=	c #F1C04E",
"%=	c #F2BE4E",
"&=	c #F2BF4D",
"*=	c #F3BE4C",
"==	c #F2BF4C",
"-=	c #F1BF4D",
";=	c #EFBD4D",
">=	c #F0BD4E",
",=	c #F2BD4B",
"'=	c #F3CA6D",
")=	c #F4CA6B",
"!=	c #F6CB77",
"~=	c #F6C360",
"{=	c #F7CE7C",
"]=	c #F4C052",
"^=	c #F4BF49",
"/=	c #E5B549",
"(=	c #82756C",
"_=	c #4F96CF",
":=	c #2473B4",
"<=	c #3C7DC7",
"[=	c #586F98",
"}=	c #C9AB99",
"|=	c #D8B59A",
"1=	c #D6B59B",
"2=	c #D7B69C",
"3=	c #D7B498",
"4=	c #D7B396",
"5=	c #D6B395",
"6=	c #D5B497",
"7=	c #D6B497",
"8=	c #D7B69B",
"9=	c #D8B79B",
"0=	c #D5B191",
"a=	c #D5B094",
"b=	c #D6B49D",
"c=	c #D5B69D",
"d=	c #D4B298",
"e=	c #D5B299",
"f=	c #D5B39A",
"g=	c #D3B296",
"h=	c #D4AF95",
"i=	c #D3B095",
"j=	c #D4B299",
"k=	c #D3B49B",
"l=	c #D2B49D",
"m=	c #D0B69A",
"n=	c #BDAB96",
"o=	c #466592",
"  . + @ # $ % & * = - ; > , ' ) ! ~ { ] ^ / ( _ : < [ } | 1 ",
"2 3 4 5 6 7 8 9 0 a b c d e f g h i j k l m n o p q r s t u ",
"v w x y z A B C D E F G H I J K L M N O P Q R S T U V W X Y ",
"Z `  ...+.@.#.$.%.&.*.=.-.;.>.,.'.).!.~.{.].^./.(._.:.<.[.}.",
"|.1.2.3.4.4.5.6.7.8.9.0.a.b.c.d.e.f.g.g.h.i.j.k.l.m.n.o.p.q.",
"r.s.t.u.v.w.x.y.z.A.B.C.D.E.F.G.H.I.J.J.K.L.M.N.O.P.Q.R.S.T.",
"U.V.W.X.Y.Z.`. +.+++@+#+$+%+&+*+=+-+;+>+,+'+)+!+~+{+]+^+/+(+",
"_+:+<+[+}+|+1+2+3+4+5+6+7+8+9+0+a+b+c+d+e+f+g+h+i+j+k+l+m+n+",
"o+p+q+r+s+t+u+v+w+x+y+z+A+B+C+D+E+F+G+H+I+J+K+L+M+N+O+P+Q+R+",
"S+T+U+V+W+X+Y+Z+`+ @.@+@@@#@$@%@&@*@=@-@;@>@,@'@)@!@~@{@]@^@",
"/@(@_@:@<@[@}@|@1@2@3@4@5@6@7@8@9@0@a@b@c@d@e@f@g@h@i@j@k@l@",
"m@n@o@p@q@r@s@t@u@v@w@x@y@z@A@B@C@D@E@F@G@H@I@J@K@L@M@N@O@P@",
"Q@R@S@T@U@V@W@X@Y@Z@`@ #.#+#@###$#%#&#*#=#-#;#>#,#'#)#!#~#{#",
"Q@]#^#/#(#_#:#<#[#}#|#1#2#3#4#5#6#7#8#9#0#a#b#c#'#d#e#f#g#h#",
"i#j#k#l#m#n#o#p#q#r#s#t#u#v#w#x#y#z#A#B#C#D#E#F#G#H#I#J#K#L#",
"M#N#O#P#Q#R#S#T#U#V#W#X#Y#Z#`# $.$+$@$#$$$%$&$*$=$-$;$>$,$'$",
")$!$~${$]$^$/$($_$:$<$[$}$|$1$2$3$4$5$6$7$8$9$0$a$b$c$d$e$f$",
"g$h$i$j$k$l$m$n$o$p$q$r$s$t$u$v$w$x$y$z$A$B$C$D$E$F$G$H$I$J$",
"K$L$M$N$O$P$Q$R$S$T$U$V$W$X$Y$Z$`$ %.%+%@%#%$%%%&%*%=%-%;%>%",
",%'%)%!%~%{%]%^%/%(%_%:%<%[%}%|%1%2%3%4%5%6%6%7%8%9%0%a%b%c%",
"d%e%)%f%g%h%i%j%k%l%m%n%o%p%q%r%s%t%u%v%w%w%x%y%z%A%B%C%D%E%",
"F%G%H%I%J%K%w%D$L%M%N%O%P%Q%R%S%T%U%V%W%X%Y%Z%`% &.&+&C%@&#&",
"$&%&&&*&=&-&;&>&,&'&)&!&~&{&]&^&/&(&_&:&<&[&}&|&1&2&3&4&5&6&",
"7&8&9&0&a&b&c&c&d&e&f&g&h&i&j&k&l&m&n&o&p&q&r&s&t&u&v&w&x&y&",
"z&A&B&C&D&E&D$F&G&H&I&J&K&L&M&N&O&P&Q&R&S&T&U&V&W&X&Y&Z&b$`&",
" *.*+*@*#*$*%*&***=*-*;*>*,*'*)*!*~*{*]*^*/*(*_*:*<*[*}*|*1*",
"2*3*f%4*5*6*7*8*9*0*a*b*c*d*e*f*g*h*i*j*k*l*m*n*o*p*q*r*s*t*",
"u*v*w*x*y*z*A*B*C*D*E*F*G*G*H*I*J*K*L*M*N*O*0*P*Q*R*S*T*U*V*",
"W*X*Y*Z*`* =G*.=+=@=#=$=%=&=*===-=;=>=,='=)=!=~={=]=^=/=(=_=",
":=<=[=}=|=1=2=3=4=5=6=7=8=9=0=a=b=c=d=e=f=g=h=i=j=k=l=m=n=o="};
