/* XPM */
static char * ocean_floor_xpm[] = {
"30 30 857 2",
"  	c #237AB1",
". 	c #2389D5",
"+ 	c #298DD9",
"@ 	c #3093DA",
"# 	c #46A8EC",
"$ 	c #1E7AC1",
"% 	c #1671BB",
"& 	c #1475BE",
"* 	c #1582C9",
"= 	c #168ED4",
"- 	c #168DDA",
"; 	c #1B8EDC",
"> 	c #52A7DF",
", 	c #66B6E9",
"' 	c #1A70B7",
") 	c #1B72BB",
"! 	c #419DE4",
"~ 	c #3C9FE6",
"{ 	c #1D8BD4",
"] 	c #188CD3",
"^ 	c #0E7BC4",
"/ 	c #117AC5",
"( 	c #0F78C4",
"_ 	c #0E7CCD",
": 	c #1E8BDC",
"< 	c #1F8BDB",
"[ 	c #218AD8",
"} 	c #329AE4",
"| 	c #3BA1E9",
"1 	c #2272AB",
"2 	c #1886D4",
"3 	c #1490EB",
"4 	c #0F87E2",
"5 	c #0D82D9",
"6 	c #1486DA",
"7 	c #057AD0",
"8 	c #0077CD",
"9 	c #0587DD",
"0 	c #0392E3",
"a 	c #0196E6",
"b 	c #2FA7FA",
"c 	c #3EA7FA",
"d 	c #3298E6",
"e 	c #2386D3",
"f 	c #0575C8",
"g 	c #34A4F3",
"h 	c #249EEC",
"i 	c #0D9CE7",
"j 	c #038FE0",
"k 	c #007CD1",
"l 	c #017DD5",
"m 	c #017BD4",
"n 	c #0580DA",
"o 	c #088FF0",
"p 	c #0990F0",
"q 	c #0B91EE",
"r 	c #25A1F7",
"s 	c #29A1F3",
"t 	c #1385DA",
"u 	c #1076C2",
"v 	c #1D83D4",
"w 	c #0C85E5",
"x 	c #057DDE",
"y 	c #0479DB",
"z 	c #0279D9",
"A 	c #0583E0",
"B 	c #0689E6",
"C 	c #0891F4",
"D 	c #0A9DF0",
"E 	c #25A7F2",
"F 	c #2994E9",
"G 	c #2E91E8",
"H 	c #1E81DA",
"I 	c #127FD3",
"J 	c #2B98E9",
"K 	c #2DA6F6",
"L 	c #1690E3",
"M 	c #018ADC",
"N 	c #0482DC",
"O 	c #0379D6",
"P 	c #007BD9",
"Q 	c #0682E0",
"R 	c #108DEB",
"S 	c #0692ED",
"T 	c #0594EC",
"U 	c #0696EA",
"V 	c #1E96EC",
"W 	c #1990E5",
"X 	c #0581D6",
"Y 	c #1073BC",
"Z 	c #1E85D3",
"` 	c #0380DF",
" .	c #0482E2",
"..	c #0683E3",
"+.	c #0583E1",
"@.	c #078EE9",
"#.	c #0796F1",
"$.	c #0394FA",
"%.	c #1696EF",
"&.	c #34A5EF",
"*.	c #107CD2",
"=.	c #0779D2",
"-.	c #0A7CD5",
";.	c #1488DE",
">.	c #31A0F2",
",.	c #0F8AE0",
"'.	c #077ED6",
").	c #017DD4",
"!.	c #017EDA",
"~.	c #0483DE",
"{.	c #0282DE",
"].	c #098EEB",
"^.	c #0B91EF",
"/.	c #0391EB",
"(.	c #0893EC",
"_.	c #0A8DE6",
":.	c #0980DB",
"<.	c #0685DB",
"[.	c #0787DB",
"}.	c #1377BF",
"|.	c #2493DE",
"1.	c #0694EE",
"2.	c #0491EB",
"3.	c #0790EC",
"4.	c #0A91EC",
"5.	c #0695EC",
"6.	c #0397EC",
"7.	c #0389E3",
"8.	c #0576D6",
"9.	c #0577D6",
"0.	c #027AD4",
"a.	c #017AD1",
"b.	c #0883D9",
"c.	c #0F8AE1",
"d.	c #0577D2",
"e.	c #007BD4",
"f.	c #0478D3",
"g.	c #047BD5",
"h.	c #0484DC",
"i.	c #0C96ED",
"j.	c #0594ED",
"k.	c #0392EB",
"l.	c #0797F1",
"m.	c #0595EE",
"n.	c #0D90EB",
"o.	c #0878D7",
"p.	c #0A76D6",
"q.	c #017BD5",
"r.	c #027DD3",
"s.	c #1375BF",
"t.	c #1F8FD7",
"u.	c #0D94EE",
"v.	c #0286DF",
"w.	c #0181DC",
"x.	c #0281DE",
"y.	c #007ED6",
"z.	c #007ED0",
"A.	c #037BD1",
"B.	c #0273CF",
"C.	c #0075D4",
"D.	c #0E88E2",
"E.	c #0581D9",
"F.	c #027ED7",
"G.	c #0076CF",
"H.	c #007AD4",
"I.	c #0985E8",
"J.	c #0D8CF6",
"K.	c #078EEF",
"L.	c #0792EC",
"M.	c #0692F0",
"N.	c #0895EB",
"O.	c #1BA5F3",
"P.	c #2AABFA",
"Q.	c #017ACF",
"R.	c #0477CD",
"S.	c #047BD6",
"T.	c #0284DE",
"U.	c #0392E8",
"V.	c #148BD4",
"W.	c #1F7EC9",
"X.	c #0381D9",
"Y.	c #027BD4",
"Z.	c #007AD0",
"`.	c #007BCE",
" +	c #0078D3",
".+	c #0A80DE",
"++	c #0F84DF",
"@+	c #0277D0",
"#+	c #0175D0",
"$+	c #0478D2",
"%+	c #0378D4",
"&+	c #0278D6",
"*+	c #0282DC",
"=+	c #078FE7",
"-+	c #048DE7",
";+	c #0791F2",
">+	c #0691F8",
",+	c #0393EE",
"'+	c #0B95E8",
")+	c #2DA3F6",
"!+	c #36ADF8",
"~+	c #249BE5",
"{+	c #1187DA",
"]+	c #017CD4",
"^+	c #007BD3",
"/+	c #0789E2",
"(+	c #0A93ED",
"_+	c #0493EC",
":+	c #158ED9",
"<+	c #1775C2",
"[+	c #0277D3",
"}+	c #0177D3",
"|+	c #057CD6",
"1+	c #0B85DB",
"2+	c #037BD6",
"3+	c #0D83DF",
"4+	c #077CD6",
"5+	c #0276CF",
"6+	c #0277D1",
"7+	c #0687DF",
"8+	c #068AE3",
"9+	c #088BE7",
"0+	c #0490E9",
"a+	c #0395ED",
"b+	c #0495EF",
"c+	c #0994F2",
"d+	c #1B99F7",
"e+	c #24A2F5",
"f+	c #26A3EF",
"g+	c #2896E4",
"h+	c #2A96E7",
"i+	c #1B87E1",
"j+	c #0080DD",
"k+	c #0589E6",
"l+	c #048BE8",
"m+	c #0291EC",
"n+	c #0393ED",
"o+	c #058EEB",
"p+	c #1183D0",
"q+	c #1878C3",
"r+	c #037CD6",
"s+	c #0685D9",
"t+	c #027CCF",
"u+	c #0680D2",
"v+	c #017ED2",
"w+	c #0180DB",
"x+	c #0481E1",
"y+	c #0890E6",
"z+	c #1C9FE5",
"A+	c #29A4EC",
"B+	c #2DA1EC",
"C+	c #2DA2EB",
"D+	c #1F9CEB",
"E+	c #219BF0",
"F+	c #279BF3",
"G+	c #32A5F5",
"H+	c #31A4F3",
"I+	c #097BD2",
"J+	c #047CD8",
"K+	c #0282E3",
"L+	c #0186E5",
"M+	c #0692F1",
"N+	c #0895F2",
"O+	c #0692EE",
"P+	c #068DE9",
"Q+	c #0684E2",
"R+	c #0974C3",
"S+	c #1D78C4",
"T+	c #0178D3",
"U+	c #0178CB",
"V+	c #0579C4",
"W+	c #0379CD",
"X+	c #0D8CE7",
"Y+	c #0799F2",
"Z+	c #0E96F2",
"`+	c #1B91F0",
" @	c #1C92EC",
".@	c #4AB9F7",
"+@	c #63C6FA",
"@@	c #68C4F9",
"#@	c #65C5FA",
"$@	c #46AFF5",
"%@	c #3EAEFA",
"&@	c #2A96EC",
"*@	c #0472CD",
"=@	c #0477D2",
"-@	c #017ED5",
";@	c #038EE4",
">@	c #0293EA",
",@	c #0896EE",
"'@	c #078FE9",
")@	c #088FE8",
"!@	c #027BD8",
"~@	c #0075D2",
"{@	c #0B73C1",
"]@	c #2886D1",
"^@	c #067DD8",
"/@	c #0079D4",
"(@	c #0279D4",
"_@	c #0D8CE8",
":@	c #0E91EA",
"<@	c #3AAEED",
"[@	c #5FC6FD",
"}@	c #6DC2FD",
"|@	c #6CC6FC",
"1@	c #3693DE",
"2@	c #177DCD",
"3@	c #177CC6",
"4@	c #147DC9",
"5@	c #0C80D4",
"6@	c #087DD8",
"7@	c #087CDD",
"8@	c #067CDC",
"9@	c #0F8BE9",
"0@	c #0497ED",
"a@	c #0593EA",
"b@	c #0B92E9",
"c@	c #1794E8",
"d@	c #37B0FC",
"e@	c #0B84DA",
"f@	c #037FD6",
"g@	c #017AD3",
"h@	c #0176D2",
"i@	c #0F76C3",
"j@	c #207CC6",
"k@	c #027AD5",
"l@	c #047ED8",
"m@	c #1B91E4",
"n@	c #4BBBF9",
"o@	c #55BFF5",
"p@	c #41A9E1",
"q@	c #3291D5",
"r@	c #318CD5",
"s@	c #3494D4",
"t@	c #0F7ECE",
"u@	c #017ECE",
"v@	c #057CC7",
"w@	c #0779CA",
"x@	c #0388E4",
"y@	c #0291F1",
"z@	c #0390F0",
"A@	c #0B97F4",
"B@	c #0A93E9",
"C@	c #27A3F8",
"D@	c #33A6FB",
"E@	c #35A1F6",
"F@	c #1B86DB",
"G@	c #077CD3",
"H@	c #047BD2",
"I@	c #0481DA",
"J@	c #0E8CE7",
"K@	c #1A84D0",
"L@	c #1C78C1",
"M@	c #0077D2",
"N@	c #0181D9",
"O@	c #2292E1",
"P@	c #4BB0EE",
"Q@	c #40A4E6",
"R@	c #43A5E7",
"S@	c #288FDD",
"T@	c #067AD0",
"U@	c #0379CE",
"V@	c #0278CC",
"W@	c #0178CF",
"X@	c #0079D2",
"Y@	c #0680DC",
"Z@	c #0682E1",
"`@	c #038FEB",
" #	c #009AF3",
".#	c #0396F0",
"+#	c #0D95F0",
"@#	c #26A2F4",
"##	c #279EEF",
"$#	c #2899EA",
"%#	c #298EE4",
"&#	c #0473CD",
"*#	c #0680DB",
"=#	c #068EE7",
"-#	c #0492E8",
";#	c #1181CD",
">#	c #1C79C1",
",#	c #0076D2",
"'#	c #38A4EC",
")#	c #68C3F8",
"!#	c #167EC6",
"~#	c #0077CB",
"{#	c #0075CC",
"]#	c #0176CD",
"^#	c #0278CF",
"/#	c #0278CD",
"(#	c #0177CF",
"_#	c #037BD5",
":#	c #0787DF",
"<#	c #0E93EC",
"[#	c #0B92ED",
"}#	c #0695ED",
"|#	c #189BE5",
"1#	c #2EA2E7",
"2#	c #1F99EA",
"3#	c #2FA9F5",
"4#	c #1A8FDE",
"5#	c #0179CC",
"6#	c #0377CE",
"7#	c #017FD9",
"8#	c #058EE6",
"9#	c #0A92EC",
"0#	c #0285E0",
"a#	c #0777C3",
"b#	c #1B77C0",
"c#	c #36A3EB",
"d#	c #64C5FA",
"e#	c #147EC7",
"f#	c #0177C9",
"g#	c #0175CE",
"h#	c #0276D0",
"i#	c #0078D0",
"j#	c #0179CF",
"k#	c #0A82DD",
"l#	c #0A91E9",
"m#	c #0292E9",
"n#	c #0C96EC",
"o#	c #1094E4",
"p#	c #3EAEEA",
"q#	c #5FC6FE",
"r#	c #3DB0FB",
"s#	c #077FD1",
"t#	c #017ACB",
"u#	c #007ACD",
"v#	c #007DD5",
"w#	c #0492E9",
"x#	c #039DF0",
"y#	c #038CE5",
"z#	c #0179D7",
"A#	c #0D73C3",
"B#	c #1D74C0",
"C#	c #0987DD",
"D#	c #3DAEEC",
"E#	c #56BBF2",
"F#	c #117DCC",
"G#	c #0477CB",
"H#	c #0275D0",
"I#	c #0278D2",
"J#	c #028FEB",
"K#	c #0297E9",
"L#	c #0296F0",
"M#	c #0A94F6",
"N#	c #1291EE",
"O#	c #58C2FF",
"P#	c #69C6FE",
"Q#	c #4BAAE4",
"R#	c #167BCB",
"S#	c #0777D3",
"T#	c #0275CF",
"U#	c #0078D1",
"V#	c #007CD3",
"W#	c #007ED5",
"X#	c #048FE6",
"Y#	c #0298EB",
"Z#	c #039AED",
"`#	c #048AE3",
" $	c #0176D4",
".$	c #106CC1",
"+$	c #1E73C2",
"@$	c #0C8CE5",
"#$	c #40B2ED",
"$$	c #5BBDF1",
"%$	c #0778CC",
"&$	c #0378CF",
"*$	c #0175CF",
"=$	c #0176D1",
"-$	c #0381DA",
";$	c #038CE3",
">$	c #0094F3",
",$	c #0495F2",
"'$	c #0D95EE",
")$	c #1EA0EB",
"!$	c #4CBFF6",
"~$	c #3192D1",
"{$	c #328FD6",
"]$	c #2786D1",
"^$	c #0979D0",
"/$	c #0175D6",
"($	c #0076D6",
"_$	c #0484E3",
":$	c #058FEB",
"<$	c #0697EE",
"[$	c #0595EB",
"}$	c #0A94EC",
"|$	c #0989E4",
"1$	c #097FDA",
"2$	c #399BEA",
"3$	c #1D78C1",
"4$	c #3AA9EC",
"5$	c #3EA9E8",
"6$	c #3899E2",
"7$	c #0777CD",
"8$	c #0277CF",
"9$	c #0076D0",
"0$	c #027FDA",
"a$	c #0295EA",
"b$	c #0095F8",
"c$	c #078FF8",
"d$	c #2C9BED",
"e$	c #3FACE5",
"f$	c #3CA8E4",
"g$	c #0A77D2",
"h$	c #0B76DB",
"i$	c #0775D4",
"j$	c #0178D5",
"k$	c #007BD7",
"l$	c #0485E9",
"m$	c #048EF0",
"n$	c #0295F3",
"o$	c #0097F2",
"p$	c #0295EE",
"q$	c #239BF3",
"r$	c #1F92EA",
"s$	c #0781D9",
"t$	c #319FEA",
"u$	c #1A75C3",
"v$	c #58B8F5",
"w$	c #47A6E4",
"x$	c #0374CB",
"y$	c #0775CD",
"z$	c #0481D9",
"A$	c #0A8DDE",
"B$	c #0593E9",
"C$	c #0096F2",
"D$	c #0295F8",
"E$	c #1EA1F4",
"F$	c #40ABED",
"G$	c #4BADEC",
"H$	c #0678CB",
"I$	c #0775D5",
"J$	c #0972D6",
"K$	c #0674D6",
"L$	c #0282DF",
"M$	c #0693F3",
"N$	c #0494F2",
"O$	c #0294F1",
"P$	c #0195F3",
"Q$	c #0198F0",
"R$	c #1097ED",
"S$	c #2E9EF2",
"T$	c #2796EC",
"U$	c #0380D9",
"V$	c #1584CE",
"W$	c #1A79C7",
"X$	c #5EB9F7",
"Y$	c #49A6E5",
"Z$	c #0475CB",
"`$	c #0976CF",
" %	c #098AE5",
".%	c #0890EF",
"+%	c #0693F5",
"@%	c #0493F7",
"#%	c #1798EA",
"$%	c #4CC3F7",
"%%	c #3EA9E3",
"&%	c #097AC9",
"*%	c #0473C9",
"=%	c #0775D0",
"-%	c #0774D1",
";%	c #0476D5",
">%	c #047EDE",
",%	c #0D93F1",
"'%	c #0493EF",
")%	c #0595EF",
"!%	c #0994EC",
"~%	c #169BEA",
"{%	c #34B0FB",
"]%	c #218BE4",
"^%	c #0D7EDB",
"/%	c #0F89E3",
"(%	c #0E78C5",
"_%	c #248CD2",
":%	c #62BDF9",
"<%	c #0576CD",
"[%	c #0A74D3",
"}%	c #037AD7",
"|%	c #068AE8",
"1%	c #0293F6",
"2%	c #0894F4",
"3%	c #1192EC",
"4%	c #5CC2FD",
"5%	c #3394DE",
"6%	c #067CCD",
"7%	c #0177CA",
"8%	c #0376CB",
"9%	c #0675D1",
"0%	c #0477D3",
"a%	c #0682DD",
"b%	c #0C94F0",
"c%	c #0496F0",
"d%	c #0494EE",
"e%	c #0696EF",
"f%	c #209BEA",
"g%	c #56C5FF",
"h%	c #1F81D7",
"i%	c #0E78DB",
"j%	c #0576D4",
"k%	c #017BD6",
"l%	c #0B75C2",
"m%	c #258FD1",
"n%	c #60C0F9",
"o%	c #4AA7E4",
"p%	c #0278CE",
"q%	c #0379D4",
"r%	c #0387E1",
"s%	c #209DEE",
"t%	c #4FBAFC",
"u%	c #3B96DB",
"v%	c #1981DA",
"w%	c #057AD5",
"x%	c #0278CB",
"y%	c #0277CC",
"z%	c #017AD4",
"A%	c #0485E2",
"B%	c #0B93EF",
"C%	c #0095F1",
"D%	c #0293EB",
"E%	c #0493E9",
"F%	c #30A9F0",
"G%	c #46BEF5",
"H%	c #2D91CB",
"I%	c #1178CC",
"J%	c #0874D5",
"K%	c #0872BF",
"L%	c #3B9FE2",
"M%	c #43A3E7",
"N%	c #308ED2",
"O%	c #017ED7",
"P%	c #0394EB",
"Q%	c #0098EF",
"R%	c #0097F3",
"S%	c #2C9EEC",
"T%	c #64C2FF",
"U%	c #1A7DCC",
"V%	c #0579CB",
"W%	c #1684D4",
"X%	c #2190DE",
"Y%	c #047CCF",
"Z%	c #0388E1",
"`%	c #0495F6",
" &	c #0195F8",
".&	c #0394F5",
"+&	c #0994F1",
"@&	c #39ACF2",
"#&	c #47ACEA",
"$&	c #41A8E2",
"%&	c #35A6DF",
"&&	c #0680C3",
"*&	c #0277C8",
"=&	c #0375CF",
"-&	c #0276D3",
";&	c #0179D3",
">&	c #127DCA",
",&	c #52AEF4",
"'&	c #2085D9",
")&	c #0972C8",
"!&	c #0478D1",
"~&	c #0280DA",
"{&	c #0495F0",
"]&	c #0097F1",
"^&	c #30A2F1",
"/&	c #61BFFC",
"(&	c #1A80D2",
"_&	c #137FD4",
":&	c #2B98E7",
"<&	c #2B9EED",
"[&	c #0580D2",
"}&	c #0890EA",
"|&	c #0998F7",
"1&	c #1196F3",
"2&	c #299CEC",
"3&	c #359AE2",
"4&	c #58B4F0",
"5&	c #67BDF8",
"6&	c #3F9DE5",
"7&	c #067AD6",
"8&	c #0479D2",
"9&	c #0078CD",
"0&	c #007AD3",
"a&	c #0286DD",
"b&	c #1C8BD5",
"c&	c #56ACF1",
"d&	c #1B82DB",
"e&	c #0673D0",
"f&	c #097ED9",
"g&	c #0B93EE",
"h&	c #0395F2",
"i&	c #0498EF",
"j&	c #2499E8",
"k&	c #46AAF5",
"l&	c #1078D0",
"m&	c #33A0F4",
"n&	c #2C96EA",
"o&	c #0578CC",
"p&	c #037DD6",
"q&	c #0690EC",
"r&	c #1397EB",
"s&	c #42ACEE",
"t&	c #66C6FD",
"u&	c #6BBEF6",
"v&	c #2177BE",
"w&	c #0876CD",
"x&	c #0879D2",
"y&	c #0C7CE4",
"z&	c #1589E9",
"A&	c #047BD1",
"B&	c #027AD2",
"C&	c #0389E2",
"D&	c #1A8DD8",
"E&	c #53ADF2",
"F&	c #1A83D8",
"G&	c #0475CD",
"H&	c #0380D8",
"I&	c #0797F2",
"J&	c #0395F4",
"K&	c #0097F4",
"L&	c #1BA3F3",
"M&	c #38A8ED",
"N&	c #117DD2",
"O&	c #0476D3",
"P&	c #1C89E6",
"Q&	c #1785E1",
"R&	c #047FDB",
"S&	c #0A8CEF",
"T&	c #0E91E9",
"U&	c #4BBCF6",
"V&	c #48A8E7",
"W&	c #1C7CC5",
"X&	c #1D7FC9",
"Y&	c #0B7BC8",
"Z&	c #0476C8",
"`&	c #1C8FE2",
" *	c #2CA1F6",
".*	c #067AD5",
"+*	c #0479D3",
"@*	c #0A83E0",
"#*	c #0793EF",
"$*	c #1D8DD8",
"%*	c #398CD5",
"&*	c #0E7BD1",
"**	c #0582DB",
"=*	c #0697F3",
"-*	c #0296F5",
";*	c #0096F5",
">*	c #1BA0F0",
",*	c #37A9F2",
"'*	c #0477CE",
")*	c #0D88E5",
"!*	c #0983E0",
"~*	c #0783E0",
"{*	c #078DED",
"]*	c #0E90E6",
"^*	c #4DB6F5",
"/*	c #3D9DE0",
"(*	c #258CD8",
"_*	c #0778C6",
":*	c #0A7BCA",
"<*	c #309CE9",
"[*	c #36A3EE",
"}*	c #2B9BE9",
"|*	c #1586DD",
"1*	c #0377D1",
"2*	c #098AE0",
"3*	c #0594F6",
"4*	c #1197F7",
"5*	c #39A2E9",
"6*	c #2076BC",
"7*	c #0676CD",
"8*	c #0A7DD3",
"9*	c #0A89E1",
"0*	c #0696F3",
"a*	c #0396F5",
"b*	c #0296F4",
"c*	c #149AEB",
"d*	c #2392DD",
"e*	c #0373CB",
"f*	c #0484E0",
"g*	c #0187E3",
"h*	c #058AE6",
"i*	c #1B96E9",
"j*	c #43A6E7",
"k*	c #2884D7",
"l*	c #1483D8",
"m*	c #2595E7",
"n*	c #2496E7",
"o*	c #2AA0F2",
"p*	c #2EA2F4",
"q*	c #2192E6",
"r*	c #057AD3",
"s*	c #077ED8",
"t*	c #0A80DB",
"u*	c #0691E1",
"v*	c #0196F9",
"w*	c #1897FB",
"x*	c #46ACF0",
"y*	c #2172C1",
"z*	c #0A75CE",
"A*	c #0989DC",
"B*	c #0B96EB",
"C*	c #159BF4",
"D*	c #148DE6",
"E*	c #0579D3",
"F*	c #0576D2",
"G*	c #037ED8",
"H*	c #0396F1",
"I*	c #1B98EC",
"J*	c #3CA6EA",
"K*	c #54B6F5",
"L*	c #1877C8",
"M*	c #147ED5",
"N*	c #2A9AE9",
"O*	c #3EAEFB",
"P*	c #37ADFB",
"Q*	c #0C98EE",
"R*	c #0C8FEA",
"S*	c #0A85E2",
"T*	c #0378D8",
"U*	c #057FDD",
"V*	c #088CE8",
"W*	c #0398F1",
"X*	c #079AF9",
"Y*	c #1B9DF3",
"Z*	c #3FA5E5",
"`*	c #2473B4",
" =	c #1373C3",
".=	c #1581CD",
"+=	c #1C8FDB",
"@=	c #1F91DF",
"#=	c #1A8CDB",
"$=	c #3DAAF1",
"%=	c #3894DB",
"&=	c #1277BC",
"*=	c #0A7ABD",
"==	c #1992D8",
"-=	c #1B95D9",
";=	c #50AFE1",
">=	c #63B9E5",
",=	c #1277B9",
"'=	c #0C70BF",
")=	c #3E9EE7",
"!=	c #38A7EB",
"~=	c #1E8ED8",
"{=	c #1B90D9",
"]=	c #1A92DD",
"^=	c #1280CE",
"/=	c #0E74C7",
"(=	c #0F74C7",
"_=	c #1D8ADA",
":=	c #1C92DF",
"<=	c #1B94E4",
"[=	c #2D9BDC",
"}=	c #43A5DE",
"|=	c #2571AD",
"  . + @ # $ % & * = - ; > , ' ) ! ~ { ] ^ / ( _ : < [ } | 1 ",
"2 3 4 5 6 7 8 9 0 a b c d e f g h i j k l m n o p q r s t u ",
"v w x y z A B C D E F G H I J K L M N O P Q R S T U V W X Y ",
"Z `  ...+.@.#.$.%.&.*.=.-.;.>.,.'.).!.~.{.].^./.(._.:.<.[.}.",
"|.1.2.3.4.5.6.7.8.9.0.a.b.c.d.e.f.g.h.i.j.k.l.m.n.o.p.q.r.s.",
"t.u.v.w.x.y.z.A.B.C.D.E.e.F.G.H.I.J.K.L.M.N.O.P.Q.R.S.T.U.V.",
"W.X.Y.Z.`. +.+++@+#+$+%+&+*+=+-+;+>+,+'+)+!+~+{+]+^+/+(+_+:+",
"<+[+}+|+1+2+3+4+5+6+7+8+9+0+a+b+c+d+e+f+g+h+i+j+k+l+m+n+o+p+",
"q+[+[+r+s+t+u+v+w+x+y+z+A+B+C+D+E+F+G+H+I+J+K+L+M+N+O+P+Q+R+",
"S+ +T+U+V+W+X+Y+Z+`+ @.@+@@@#@$@%@&@*@=@-@;@>@,@'@)@~.!@~@{@",
"]@^@/@}+(@_@:@<@[@}@|@1@2@3@4@5@6@7@8@9@0@a@b@c@d@e@f@g@h@i@",
"j@k@H.l@m@n@o@p@q@r@s@t@u@v@w@a.x@y@z@A@B@C@D@E@F@G@H@I@J@K@",
"L@M@N@O@P@Q@R@S@T@U@V@W@X@r+Y@Z@`@ #.#+#@###$#%#&#(@*#=#-#;#",
">#,#7+'#)#!#~#{#]#^#/#(#_#:#<#[#}#|#1#2#3#4#5#6#(@7#8#9#0#a#",
"b#M@[.c#d#e#f#g#h#i#j#W@k#l#m#n#o#p#q#r#s#t#u#Z.v#w#x#y#z#A#",
"B#C#D#E#F#G#g#H#I#]+J#K#L#M#N#O#P#Q#R#S#T#U#V#W#X#Y#Z#`# $.$",
"+$@$#$$$%$&$*$=$-$;$>$,$'$)$!$~${$]$^$/$($_$:$k.<$[$}$|$1$2$",
"3$4$5$6$7$8$9$0$;$a$b$c$d$e$f$g$h$i$j$k$l$m$n$o$p$4.q$r$s$t$",
"u$v$w$x$y$@+z$A$B$C$D$E$F$G$H$I$J$K$z L$M$N$O$P$Q$R$S$T$U$V$",
"W$X$Y$Z$`$h# %.%+%@%#%$%%%&%*%=%-%;%>%,%'%)%)%!%~%{%]%^%/%(%",
"_%:%Y$<%[%}%|%1%2%3%4%5%6%7%8%9%0%a%b%c%d%d%e%f%g%h%i%j%k%l%",
"m%n%o%p%q%r%d%o$s%t%u%v%w%x%y%z%A%B%N$C%D%E%F%G%H%I%J%j%}+K%",
"L%M%N%j#O%P%Q%R%S%T%U%V%W%X%Y%Z%`% &.&+&@&#&$&%&&&*&=&-&;&>&",
",&'&)&!&~&{&]&]&^&/&(&_&:&<&[&}&|&1&2&3&4&5&6&7&8&V@9&0&a&b&",
"c&d&e&f&g&h&o$i&j&k&l&m&n&o&p&q&r&s&t&u&v&w&x&y&z&A&B&C&[$D&",
"E&F&G&H&I&J&K&L&M&N&O&P&Q&R&S&T&U&V&W&X&Y&Z&`& *.*+*@*#*c%$*",
"%*&*<%**=*-*;*>*,*'*)*!*~*{*]*^*/*(*_*:*<*[*}*|*1*h#2*3*4*5*",
"6*7*8*9*0*a*b*c*d*e*f*g*h*i*p#j*k*l*m*n*o*p*q*r*s*t*u*v*w*x*",
"y*z*A*B*N+N+C*D*E*F*G*H*I*J*K*L*M*N*O*P*Q*R*S*T*U*V*W*X*Y*Z*",
"`* =.=+=@=#=$=%=&=*===-=;=>=,='=)=!=~={=]=^=/=(=_=:=<=[=}=|="};
