/* XPM */
static char * player_ocean_xpm[] = {
"30 30 563 2",
"  	c #237AB1",
". 	c #2489D5",
"+ 	c #298DD9",
"@ 	c #3093DA",
"# 	c #46A8EC",
"$ 	c #1E7AC1",
"% 	c #1671BB",
"& 	c #1475BE",
"* 	c #1582C9",
"= 	c #168ED4",
"- 	c #168DDA",
"; 	c #1B8EDC",
"> 	c #52A7DF",
", 	c #66B6E9",
"' 	c #1A70B7",
") 	c #1B72BB",
"! 	c #419DE4",
"~ 	c #3C9FE6",
"{ 	c #1D8BD4",
"] 	c #188CD3",
"^ 	c #0E7BC4",
"/ 	c #167BC5",
"( 	c #3582C5",
"_ 	c #1E7FCD",
": 	c #1F8BDC",
"< 	c #218CDB",
"[ 	c #238BD8",
"} 	c #359BE3",
"| 	c #3DA2E8",
"1 	c #2574AC",
"2 	c #1886D4",
"3 	c #1490EB",
"4 	c #0F87E2",
"5 	c #0D82D9",
"6 	c #1486DA",
"7 	c #057AD0",
"8 	c #0077CD",
"9 	c #0587DD",
"0 	c #0392E3",
"a 	c #0196E6",
"b 	c #2FA7FA",
"c 	c #3EA7FA",
"d 	c #3298E6",
"e 	c #2386D3",
"f 	c #0575C8",
"g 	c #34A4F3",
"h 	c #249EEC",
"i 	c #0D9CE7",
"j 	c #038FE0",
"k 	c #007CD1",
"l 	c #017DD5",
"m 	c #017BD4",
"n 	c #0580DA",
"o 	c #088FF0",
"p 	c #0990F0",
"q 	c #0B91EE",
"r 	c #25A1F7",
"s 	c #29A1F3",
"t 	c #1385DA",
"u 	c #1377C2",
"v 	c #1D83D4",
"w 	c #0C85E5",
"x 	c #057DDE",
"y 	c #0479DB",
"z 	c #0279D9",
"A 	c #0583E0",
"B 	c #0689E6",
"C 	c #0891F4",
"D 	c #0A9DF0",
"E 	c #25A7F2",
"F 	c #2994E9",
"G 	c #2E91E8",
"H 	c #1E81DA",
"I 	c #127FD3",
"J 	c #2B98E9",
"K 	c #2DA6F6",
"L 	c #1690E3",
"M 	c #018ADC",
"N 	c #0482DC",
"O 	c #0379D6",
"P 	c #007BD9",
"Q 	c #0682E0",
"R 	c #108DEB",
"S 	c #0692ED",
"T 	c #0594EC",
"U 	c #0696EA",
"V 	c #1E96EC",
"W 	c #1990E5",
"X 	c #0581D6",
"Y 	c #1274BC",
"Z 	c #1E85D3",
"` 	c #0380DF",
" .	c #0482E2",
"..	c #0683E3",
"+.	c #0583E1",
"@.	c #078EE9",
"#.	c #0796F1",
"$.	c #0394FA",
"%.	c #1696EF",
"&.	c #34A5EF",
"*.	c #107CD2",
"=.	c #0779D2",
"-.	c #0A7CD5",
";.	c #1488DE",
">.	c #31A0F2",
",.	c #0F8AE0",
"'.	c #077ED6",
").	c #017DD4",
"!.	c #017EDA",
"~.	c #0483DE",
"{.	c #0282DE",
"].	c #098EEB",
"^.	c #0B91EF",
"/.	c #0391EB",
"(.	c #0893EC",
"_.	c #0F8DE6",
":.	c #0E81DB",
"<.	c #1386DB",
"[.	c #1A89DB",
"}.	c #207ABF",
"|.	c #2493DE",
"1.	c #0694EE",
"2.	c #0491EB",
"3.	c #0790EC",
"4.	c #0A91EC",
"5.	c #0695EC",
"6.	c #0397EC",
"7.	c #0389E3",
"8.	c #0576D6",
"9.	c #0577D6",
"0.	c #027AD4",
"a.	c #017AD1",
"b.	c #0883D9",
"c.	c #0F8AE1",
"d.	c #0577D2",
"e.	c #007BD4",
"f.	c #0478D3",
"g.	c #047BD5",
"h.	c #0484DC",
"i.	c #0C96ED",
"j.	c #0594ED",
"k.	c #0392EB",
"l.	c #0797F1",
"m.	c #0595EE",
"n.	c #0D90EB",
"o.	c #1379D7",
"p.	c #1878D6",
"q.	c #137DD5",
"r.	c #2F85D3",
"s.	c #2178BF",
"t.	c #1F8FD7",
"u.	c #0D94EE",
"v.	c #0286DF",
"w.	c #0181DC",
"x.	c #0281DE",
"y.	c #007ED6",
"z.	c #007ED0",
"A.	c #037BD1",
"B.	c #0273CF",
"C.	c #0075D4",
"D.	c #0E88E2",
"E.	c #0581D9",
"F.	c #027ED7",
"G.	c #0076CF",
"H.	c #007AD4",
"I.	c #0985E8",
"J.	c #0D8CF6",
"K.	c #078EEF",
"L.	c #0792EC",
"M.	c #0692F0",
"N.	c #0895EB",
"O.	c #1BA5F3",
"P.	c #2AABFA",
"Q.	c #017ACF",
"R.	c #1A7ACD",
"S.	c #047BD6",
"T.	c #0A85DE",
"U.	c #0B92E8",
"V.	c #148BD4",
"W.	c #1F7EC9",
"X.	c #0381D9",
"Y.	c #027BD4",
"Z.	c #007AD0",
"`.	c #007BCE",
" +	c #0078D3",
".+	c #0A80DE",
"++	c #1384DF",
"@+	c #0A78D0",
"#+	c #1176D0",
"$+	c #1C7BD2",
"%+	c #207CD4",
"&+	c #237CD6",
"*+	c #2386DC",
"=+	c #2E94E6",
"-+	c #2F92E6",
";+	c #3195F0",
">+	c #2691F5",
",+	c #0493EE",
"'+	c #0B95E8",
")+	c #2DA3F6",
"!+	c #36ADF8",
"~+	c #249BE5",
"{+	c #1187DA",
"]+	c #0E7DD4",
"^+	c #177DD3",
"/+	c #1E8BE2",
"(+	c #0A93ED",
"_+	c #0493EC",
":+	c #158ED9",
"<+	c #1775C2",
"[+	c #0277D3",
"}+	c #0177D3",
"|+	c #057CD6",
"1+	c #0B85DB",
"2+	c #057BD6",
"3+	c #0F83DF",
"4+	c #3282D6",
"5+	c #FB84B8",
"6+	c #3598EB",
"7+	c #2E9FEC",
"8+	c #2996E4",
"9+	c #2A96E7",
"0+	c #1B87E1",
"a+	c #0080DD",
"b+	c #0589E6",
"c+	c #158CE8",
"d+	c #0791EC",
"e+	c #0393ED",
"f+	c #058EEB",
"g+	c #1583D0",
"h+	c #1878C3",
"i+	c #037CD6",
"j+	c #1785D8",
"k+	c #3A7FCF",
"l+	c #F084BB",
"m+	c #F183BA",
"n+	c #FCAED8",
"o+	c #3B7ED1",
"p+	c #097CD8",
"q+	c #0282E3",
"r+	c #0186E5",
"s+	c #0692F1",
"t+	c #0B95F2",
"u+	c #0692EE",
"v+	c #068DE9",
"w+	c #0684E2",
"x+	c #1275C3",
"y+	c #1D78C4",
"z+	c #0178D3",
"A+	c #0178CB",
"B+	c #387FC7",
"C+	c #FFE3EF",
"D+	c #318DDF",
"E+	c #0E93E9",
"F+	c #0896EE",
"G+	c #078FE9",
"H+	c #088FE8",
"I+	c #027BD8",
"J+	c #0075D2",
"K+	c #1274C1",
"L+	c #2886D1",
"M+	c #067DD8",
"N+	c #0079D4",
"O+	c #0477D3",
"P+	c #F086BE",
"Q+	c #468FDA",
"R+	c #2C92E4",
"S+	c #37B0FC",
"T+	c #0B84DA",
"U+	c #037FD6",
"V+	c #017AD3",
"W+	c #0176D2",
"X+	c #1477C3",
"Y+	c #207CC6",
"Z+	c #027AD5",
"`+	c #4798E6",
" @	c #1D86DB",
".@	c #077CD3",
"+@	c #047BD2",
"@@	c #0481DA",
"#@	c #0E8CE7",
"$@	c #1C84D0",
"%@	c #1C78C1",
"&@	c #0077D2",
"*@	c #0882D9",
"=@	c #E686C1",
"-@	c #1C76CD",
";@	c #0279D4",
">@	c #0680DB",
",@	c #068EE7",
"'@	c #0492E8",
")@	c #1381CD",
"!@	c #1C79C1",
"~@	c #0276D2",
"{@	c #F083BA",
"]@	c #2B7ED2",
"^@	c #017FD9",
"/@	c #058EE6",
"(@	c #0A92EC",
"_@	c #0285E0",
":@	c #0B78C3",
"<@	c #1B77C0",
"[@	c #280015",
"}@	c #F083BB",
"|@	c #3E83D1",
"1@	c #0792E9",
"2@	c #039DF0",
"3@	c #038CE5",
"4@	c #0D7BD7",
"5@	c #3785C5",
"6@	c #1D74C0",
"7@	c #0987DD",
"8@	c #DD87C5",
"9@	c #0598EB",
"0@	c #039AED",
"a@	c #048AE3",
"b@	c #217BD3",
"c@	c #619CCD",
"d@	c #1E73C2",
"e@	c #0C8CE5",
"f@	c #DD89C7",
"g@	c #0695EB",
"h@	c #0A94EC",
"i@	c #0989E4",
"j@	c #1980D9",
"k@	c #5A8ED0",
"l@	c #1D78C1",
"m@	c #3AA9EC",
"n@	c #1091EB",
"o@	c #239BF3",
"p@	c #1F92EA",
"q@	c #0C81D9",
"r@	c #399BE6",
"s@	c #1B75C3",
"t@	c #58B6F4",
"u@	c #F64F85",
"v@	c #CE8CCF",
"w@	c #1896EC",
"x@	c #2E9EF2",
"y@	c #2796EC",
"z@	c #0380D9",
"A@	c #1684CE",
"B@	c #E02561",
"C@	c #C38FD0",
"D@	c #35AFFA",
"E@	c #218BE4",
"F@	c #117EDB",
"G@	c #1589E2",
"H@	c #1078C5",
"I@	c #C9A5DB",
"J@	c #2E80D6",
"K@	c #2479D9",
"L@	c #8B63B7",
"M@	c #A65CA8",
"N@	c #2776C4",
"O@	c #FB9DCB",
"P@	c #F185BA",
"Q@	c #CD3F7E",
"R@	c #CD3D81",
"S@	c #EC548F",
"T@	c #3C9EE2",
"U@	c #619DDF",
"V@	c #A06FAB",
"W@	c #EB548D",
"X@	c #EB548F",
"Y@	c #52AEF4",
"Z@	c #2085D9",
"`@	c #0972C8",
" #	c #0D78D1",
".#	c #6F81D5",
"+#	c #DB89C9",
"@#	c #DC8DC9",
"##	c #DF97CD",
"$#	c #E683BD",
"%#	c #F087BE",
"&#	c #E688C1",
"*#	c #D099D0",
"=#	c #B3AAE2",
"-#	c #8898DC",
";#	c #5E7BD3",
">#	c #4076CD",
",#	c #3B75C8",
"'#	c #4F73C5",
")#	c #8F65B4",
"!#	c #C34E90",
"~#	c #4E81D0",
"{#	c #56ACF1",
"]#	c #1B82DB",
"^#	c #0673D0",
"/#	c #097ED9",
"(#	c #0D93EE",
"_#	c #1993EF",
":#	c #1A95EF",
"<#	c #1B96EC",
"[#	c #2D96E6",
"}#	c #48A6F1",
"|#	c #2179D0",
"1#	c #3B9BEF",
"2#	c #3792E5",
"3#	c #2E79CD",
"4#	c #347DD3",
"5#	c #3B88E0",
"6#	c #3D8DDF",
"7#	c #4AA0E5",
"8#	c #64BDF7",
"9#	c #6ABBF4",
"0#	c #2577BF",
"a#	c #0C76CD",
"b#	c #0979D2",
"c#	c #0C7CE4",
"d#	c #1589E9",
"e#	c #047BD1",
"f#	c #027AD2",
"g#	c #0489E2",
"h#	c #1B8DD8",
"i#	c #53ADF2",
"j#	c #1A83D8",
"k#	c #0475CD",
"l#	c #0380D8",
"m#	c #0797F2",
"n#	c #0395F4",
"o#	c #0097F4",
"p#	c #1BA3F3",
"q#	c #38A8ED",
"r#	c #117DD2",
"s#	c #0476D3",
"t#	c #1C89E6",
"u#	c #1785E1",
"v#	c #047FDB",
"w#	c #0B8CEF",
"x#	c #0F91E9",
"y#	c #4BBCF6",
"z#	c #48A8E7",
"A#	c #1C7CC5",
"B#	c #1D7FC9",
"C#	c #0B7BC8",
"D#	c #0476C8",
"E#	c #1C8FE2",
"F#	c #2CA1F6",
"G#	c #067AD5",
"H#	c #0479D3",
"I#	c #0A83E0",
"J#	c #0793EF",
"K#	c #0496F0",
"L#	c #1D8DD8",
"M#	c #398CD5",
"N#	c #0E7BD1",
"O#	c #0576CD",
"P#	c #0582DB",
"Q#	c #0697F3",
"R#	c #0296F5",
"S#	c #0096F5",
"T#	c #1BA0F0",
"U#	c #37A9F2",
"V#	c #0477CE",
"W#	c #0D88E5",
"X#	c #0983E0",
"Y#	c #0783E0",
"Z#	c #078DED",
"`#	c #0E90E6",
" $	c #4DB6F5",
".$	c #3D9DE0",
"+$	c #258CD8",
"@$	c #0778C6",
"#$	c #0A7BCA",
"$$	c #309CE9",
"%$	c #36A3EE",
"&$	c #2B9BE9",
"*$	c #1586DD",
"=$	c #0377D1",
"-$	c #0276D0",
";$	c #098AE0",
">$	c #0594F6",
",$	c #1197F7",
"'$	c #39A2E9",
")$	c #2076BC",
"!$	c #0676CD",
"~$	c #0A7DD3",
"{$	c #0A89E1",
"]$	c #0696F3",
"^$	c #0396F5",
"/$	c #0296F4",
"($	c #149AEB",
"_$	c #2392DD",
":$	c #0373CB",
"<$	c #0484E0",
"[$	c #0187E3",
"}$	c #058AE6",
"|$	c #1B96E9",
"1$	c #3EAEEA",
"2$	c #43A6E7",
"3$	c #2884D7",
"4$	c #1483D8",
"5$	c #2595E7",
"6$	c #2496E7",
"7$	c #2AA0F2",
"8$	c #2EA2F4",
"9$	c #2192E6",
"0$	c #057AD3",
"a$	c #077ED8",
"b$	c #0A80DB",
"c$	c #0691E1",
"d$	c #0196F9",
"e$	c #1897FB",
"f$	c #46ACF0",
"g$	c #2472C1",
"h$	c #1075CE",
"i$	c #0D89DC",
"j$	c #0C96EB",
"k$	c #0995F2",
"l$	c #0895F2",
"m$	c #159BF4",
"n$	c #148DE6",
"o$	c #0579D3",
"p$	c #0576D2",
"q$	c #037ED8",
"r$	c #0396F1",
"s$	c #1B98EC",
"t$	c #3CA6EA",
"u$	c #54B6F5",
"v$	c #1877C8",
"w$	c #147ED5",
"x$	c #2A9AE9",
"y$	c #3EAEFB",
"z$	c #37ADFB",
"A$	c #0C98EE",
"B$	c #0C8FEA",
"C$	c #0A85E2",
"D$	c #0378D8",
"E$	c #057FDD",
"F$	c #088CE8",
"G$	c #0398F1",
"H$	c #079AF9",
"I$	c #1B9DF3",
"J$	c #3FA5E5",
"K$	c #597DCE",
"L$	c #557FCF",
"M$	c #5281D1",
"N$	c #4E81D2",
"O$	c #538BD8",
"P$	c #4E87D3",
"Q$	c #3679C2",
"R$	c #1F7ABF",
"S$	c #1E91D8",
"T$	c #1F94D9",
"U$	c #50AEE1",
"V$	c #63B8E4",
"W$	c #1677B9",
"X$	c #1070BF",
"Y$	c #3E9EE7",
"Z$	c #38A7EB",
"`$	c #1E8ED8",
" %	c #1B90D9",
".%	c #1A92DD",
"+%	c #1280CE",
"@%	c #0E74C7",
"#%	c #0F74C7",
"$%	c #1D8ADA",
"%%	c #1C92DF",
"&%	c #1B94E4",
"*%	c #2D9BDC",
"=%	c #43A5DE",
"-%	c #2571AD",
"  . + @ # $ % & * = - ; > , ' ) ! ~ { ] ^ / ( _ : < [ } | 1 ",
"2 3 4 5 6 7 8 9 0 a b c d e f g h i j k l m n o p q r s t u ",
"v w x y z A B C D E F G H I J K L M N O P Q R S T U V W X Y ",
"Z `  ...+.@.#.$.%.&.*.=.-.;.>.,.'.).!.~.{.].^./.(._.:.<.[.}.",
"|.1.2.3.4.5.6.7.8.9.0.a.b.c.d.e.f.g.h.i.j.k.l.m.n.o.p.q.r.s.",
"t.u.v.w.x.y.z.A.B.C.D.E.e.F.G.H.I.J.K.L.M.N.O.P.Q.R.S.T.U.V.",
"W.X.Y.Z.`. +.+++@+#+$+%+&+*+=+-+;+>+,+'+)+!+~+{+]+^+/+(+_+:+",
"<+[+}+|+1+2+3+4+5+5+5+5+5+5+5+5+5+5+6+7+8+9+0+a+b+c+d+e+f+g+",
"h+[+[+i+j+k+l+m+n+n+n+n+n+n+n+n+n+n+5+5+o+p+q+r+s+t+u+v+w+x+",
"y+ +z+A+B+5+n+n+n+n+n+n+n+C+C+n+n+n+n+n+5+D+E+F+G+H+~.I+J+K+",
"L+M+N+O+5+n+n+n+n+n+n+n+n+n+n+n+C+C+C+n+n+P+Q+R+S+T+U+V+W+X+",
"Y+Z+H.5+n+n+C+n+n+n+n+n+n+n+n+n+n+C+C+C+n+n+5+`+ @.@+@@@#@$@",
"%@&@*@5+n+n+n+n+n+n+n+n+n+n+n+n+n+n+n+C+C+n+n+=@-@;@>@,@'@)@",
"!@~@5+n+n+n+n+5+n+n+n+n+n+n+n+n+n+n+n+n+n+n+n+{@]@^@/@(@_@:@",
"<@&@5+n+[@[@5+n+C+n+n+n+n+[@[@n+n+n+n+n+n+n+n+}@|@1@2@3@4@5@",
"6@7@5+[@[@5+n+C+n+n+n+n+n+[@[@[@n+n+n+n+n+n+C+n+8@9@0@a@b@c@",
"d@e@5+[@[@5+n+C+n+n+n+n+n+[@[@[@n+n+n+n+n+n+n+n+f@g@h@i@j@k@",
"l@m@5+n+n+5+n+n+n+n+n+5+n+n+n+n+n+n+n+n+n+n+n+n+f@n@o@p@q@r@",
"s@t@5+n+u@5+n+n+n+n+5+u@u@n+n+n+n+n+n+n+n+n+n+n+v@w@x@y@z@A@",
"B@B@5+u@u@B@5+5+5+5+B@B@u@u@n+n+n+n+B@B@B@n+n+n+C@D@E@F@G@H@",
"u@u@5+u@B@u@u@u@u@u@u@u@B@u@n+n+n+B@u@u@u@B@n+n+I@J@K@L@M@N@",
"B@u@5+u@u@O@O@O@O@O@O@u@u@u@n+n+B@u@u@u@u@B@n+O@P@Q@R@S@u@B@",
"T@U@V@5+O@O@O@O@O@O@O@O@O@O@O@O@B@B@B@B@B@O@O@O@5+W@X@X@u@B@",
"Y@Z@`@ #.#+#+#+#@###$#l+5+5+5+5+5+5+%#&#*#=#-#;#>#,#'#)#!#~#",
"{#]#^#/#(#_#:#<#[#}#|#1#2#3#4#5#6#7#8#9#0#a#b#c#d#e#f#g#N.h#",
"i#j#k#l#m#n#o#p#q#r#s#t#u#v#w#x#y#z#A#B#C#D#E#F#G#H#I#J#K#L#",
"M#N#O#P#Q#R#S#T#U#V#W#X#Y#Z#`# $.$+$@$#$$$%$&$*$=$-$;$>$,$'$",
")$!$~${$]$^$/$($_$:$<$[$}$|$1$2$3$4$5$6$7$8$9$0$a$b$c$d$e$f$",
"g$h$i$j$k$l$m$n$o$p$q$r$s$t$u$v$w$x$y$z$A$B$C$D$E$F$G$H$I$J$",
"K$K$K$L$M$N$O$P$Q$R$S$T$U$V$W$X$Y$Z$`$ %.%+%@%#%$%%%&%*%=%-%"};
