/* XPM */
static char * player_ocean_xpm[] = {
"30 30 747 2",
"  	c #237AB1",
". 	c #2389D5",
"+ 	c #298DD9",
"@ 	c #3093DA",
"# 	c #46A8EC",
"$ 	c #1E7AC1",
"% 	c #1671BB",
"& 	c #1475BE",
"* 	c #1582C9",
"= 	c #168ED4",
"- 	c #168DDA",
"; 	c #1B8EDC",
"> 	c #52A7DF",
", 	c #66B6E9",
"' 	c #1A70B7",
") 	c #1B72BB",
"! 	c #419DE4",
"~ 	c #3C9FE6",
"{ 	c #1987D5",
"] 	c #1488D4",
"^ 	c #0E7BC4",
"/ 	c #117AC5",
"( 	c #0F78C4",
"_ 	c #0E7CCD",
": 	c #1E8BDC",
"< 	c #1F8BDB",
"[ 	c #218AD8",
"} 	c #329AE4",
"| 	c #3BA1E9",
"1 	c #2272AB",
"2 	c #1886D4",
"3 	c #1490EB",
"4 	c #0F87E2",
"5 	c #0D82D9",
"6 	c #1486DA",
"7 	c #057AD0",
"8 	c #0077CD",
"9 	c #0587DD",
"0 	c #0392E3",
"a 	c #0196E6",
"b 	c #2FA7FA",
"c 	c #3EA7FA",
"d 	c #3298E6",
"e 	c #1E84D4",
"f 	c #047AD1",
"g 	c #2F9EEE",
"h 	c #249EEC",
"i 	c #0D9CE7",
"j 	c #0387DC",
"k 	c #017CD3",
"l 	c #017DD5",
"m 	c #017BD4",
"n 	c #0580DA",
"o 	c #088FF0",
"p 	c #0990F0",
"q 	c #0B91EE",
"r 	c #25A1F7",
"s 	c #29A1F3",
"t 	c #1385DA",
"u 	c #1076C2",
"v 	c #1D83D4",
"w 	c #0C85E5",
"x 	c #057DDE",
"y 	c #0479DB",
"z 	c #0279D9",
"A 	c #0583E0",
"B 	c #0689E6",
"C 	c #0891F4",
"D 	c #0A9DF0",
"E 	c #25A7F2",
"F 	c #2994E9",
"G 	c #2E91E8",
"H 	c #1E81DA",
"I 	c #117FD3",
"J 	c #097ED8",
"K 	c #057DD7",
"L 	c #0F88DD",
"M 	c #018ADC",
"N 	c #0480DA",
"O 	c #037BD6",
"P 	c #007BD9",
"Q 	c #0681DF",
"R 	c #0984E0",
"S 	c #0692ED",
"T 	c #0594EC",
"U 	c #0696EA",
"V 	c #1E96EC",
"W 	c #1990E5",
"X 	c #0581D6",
"Y 	c #1073BC",
"Z 	c #1E85D3",
"` 	c #0380DF",
" .	c #0482E2",
"..	c #0683E3",
"+.	c #0482DE",
"@.	c #0486E0",
"#.	c #048BE4",
"$.	c #0680DB",
"%.	c #0680DA",
"&.	c #34A5EF",
"*.	c #107CD2",
"=.	c #0779D2",
"-.	c #0A7CD5",
";.	c #067ED7",
">.	c #047DD6",
",.	c #067FD8",
"'.	c #037CD6",
").	c #027CD5",
"!.	c #027DD9",
"~.	c #037ED8",
"{.	c #0581DC",
"].	c #047ED9",
"^.	c #0391EB",
"/.	c #0893EC",
"(.	c #0A8DE6",
"_.	c #0980DB",
":.	c #0685DB",
"<.	c #0787DB",
"[.	c #1377BF",
"}.	c #2493DE",
"|.	c #0694EE",
"1.	c #0491EB",
"2.	c #0790EC",
"3.	c #078BE5",
"4.	c #007FD7",
"5.	c #027ED7",
"6.	c #067DD7",
"7.	c #8EABDF",
"8.	c #0577D6",
"9.	c #027AD4",
"0.	c #017AD1",
"a.	c #047DD7",
"b.	c #B7C7E7",
"c.	c #E2BCAD",
"d.	c #6C9ADC",
"e.	c #037DD7",
"f.	c #047FD9",
"g.	c #037FD9",
"h.	c #93AFE0",
"i.	c #0589E3",
"j.	c #0D90EB",
"k.	c #0878D7",
"l.	c #0A76D6",
"m.	c #017BD5",
"n.	c #027DD3",
"o.	c #1375BF",
"p.	c #1F8FD7",
"q.	c #0D94EE",
"r.	c #0286DF",
"s.	c #0181DC",
"t.	c #0180DB",
"u.	c #007ED6",
"v.	c #027DD6",
"w.	c #AABCE1",
"x.	c #D8917B",
"y.	c #0075D4",
"z.	c #0D86E0",
"A.	c #0581D9",
"B.	c #789EDC",
"C.	c #D3A39D",
"D.	c #DA6B1E",
"E.	c #D3A39B",
"F.	c #6C98DB",
"G.	c #047FDA",
"H.	c #94ADDE",
"I.	c #D28972",
"J.	c #A1B4DF",
"K.	c #1D97E9",
"L.	c #017ACF",
"M.	c #0477CD",
"N.	c #047BD6",
"O.	c #0284DE",
"P.	c #0392E8",
"Q.	c #148BD4",
"R.	c #1F7EC9",
"S.	c #0381D9",
"T.	c #027BD4",
"U.	c #007AD0",
"V.	c #007CD0",
"W.	c #027ED6",
"X.	c #1A80D7",
"Y.	c #DA6B1F",
"Z.	c #D18E7B",
"`.	c #5E92DA",
" +	c #037AD4",
".+	c #0279D6",
"++	c #0280DA",
"@+	c #CD6A4F",
"#+	c #E27321",
"$+	c #D8691E",
"%+	c #0691F8",
"&+	c #0389E4",
"*+	c #047ED7",
"=+	c #A29CC1",
"-+	c #DD6E20",
";+	c #D19484",
">+	c #0A80DA",
",+	c #017CD4",
"'+	c #007BD3",
")+	c #0789E2",
"!+	c #0A93ED",
"~+	c #0493EC",
"{+	c #158ED9",
"]+	c #1775C2",
"^+	c #0277D3",
"/+	c #0177D3",
"(+	c #057CD6",
"_+	c #0A84DB",
":+	c #0781DB",
"<+	c #DA7541",
"[+	c #B6ADC8",
"}+	c #0681DA",
"|+	c #0684DF",
"1+	c #D58366",
"2+	c #E07121",
"3+	c #209CF0",
"4+	c #4F8CD8",
"5+	c #DCB3AB",
"6+	c #D09485",
"7+	c #A1B8E3",
"8+	c #0581DD",
"9+	c #048BE8",
"0+	c #0291EC",
"a+	c #0393ED",
"b+	c #058EEB",
"c+	c #1183D0",
"d+	c #1878C3",
"e+	c #0685D9",
"f+	c #027CCF",
"g+	c #0680D2",
"h+	c #CF621C",
"i+	c #DD6E1F",
"j+	c #DCA799",
"k+	c #8EAADE",
"l+	c #1489DE",
"m+	c #CE5F1D",
"n+	c #E07120",
"o+	c #D1621C",
"p+	c #2FA2F2",
"q+	c #198ADF",
"r+	c #D7681F",
"s+	c #DB6D23",
"t+	c #E7C6BB",
"u+	c #0692F1",
"v+	c #0895F2",
"w+	c #0692EE",
"x+	c #068DE9",
"y+	c #0684E2",
"z+	c #0974C3",
"A+	c #1D78C4",
"B+	c #0078D3",
"C+	c #0178D3",
"D+	c #0178CB",
"E+	c #0579C4",
"F+	c #0379CD",
"G+	c #0D8CE7",
"H+	c #D0621B",
"I+	c #DC6D20",
"J+	c #D9ADA5",
"K+	c #61C3F8",
"L+	c #C5541A",
"M+	c #D0611E",
"N+	c #D96A21",
"O+	c #0472CD",
"P+	c #E0B0A2",
"Q+	c #DB6C1F",
"R+	c #DC6D22",
"S+	c #078FE9",
"T+	c #088FE8",
"U+	c #0483DE",
"V+	c #027BD8",
"W+	c #0075D2",
"X+	c #0B73C1",
"Y+	c #2886D1",
"Z+	c #067DD8",
"`+	c #0079D4",
" @	c #0279D4",
".@	c #0D8CE8",
"+@	c #0E91EA",
"@@	c #DE6F20",
"#@	c #D0621E",
"$@	c #C95A1C",
"%@	c #D49E85",
"&@	c #B27F34",
"*@	c #B48034",
"=@	c #BF8835",
"-@	c #B68334",
";@	c #D6A48D",
">@	c #DB6C1E",
",@	c #37B0FC",
"'@	c #0B84DA",
")@	c #037FD6",
"!@	c #017AD3",
"~@	c #0176D2",
"{@	c #0F76C3",
"]@	c #207CC6",
"^@	c #027AD5",
"/@	c #007AD4",
"(@	c #047ED8",
"_@	c #1186DD",
":@	c #3CA8ED",
"<@	c #B2BDE0",
"[@	c #D2816B",
"}@	c #CC5C1B",
"|@	c #C55419",
"1@	c #C35B1F",
"2@	c #B38236",
"3@	c #CAB158",
"4@	c #F5E076",
"5@	c #CDB159",
"6@	c #DB7525",
"7@	c #DC6E20",
"8@	c #C7663F",
"9@	c #2994EA",
"0@	c #1281D9",
"a@	c #077CD3",
"b@	c #047BD2",
"c@	c #0481DA",
"d@	c #0E8CE7",
"e@	c #1A84D0",
"f@	c #1C78C1",
"g@	c #0078D2",
"h@	c #027FD8",
"i@	c #558ED8",
"j@	c #238BDB",
"k@	c #6C98DA",
"l@	c #94B0DF",
"m@	c #B2BADA",
"n@	c #CC7659",
"o@	c #C35B1E",
"p@	c #B48035",
"q@	c #A9933D",
"r@	c #EFDB72",
"s@	c #F6E176",
"t@	c #F6E177",
"u@	c #C5A24D",
"v@	c #C06223",
"w@	c #C4541B",
"x@	c #E3C8C0",
"y@	c #84A7DF",
"z@	c #558ED9",
"A@	c #068EE7",
"B@	c #0492E8",
"C@	c #1181CD",
"D@	c #1C79C1",
"E@	c #0076D2",
"F@	c #0687DF",
"G@	c #38A4EC",
"H@	c #CF601D",
"I@	c #DDA595",
"J@	c #D4ADAC",
"K@	c #CC7559",
"L@	c #C06424",
"M@	c #CAB557",
"N@	c #F4DE74",
"O@	c #EDD870",
"P@	c #D69944",
"Q@	c #C8591B",
"R@	c #DEB1A6",
"S@	c #D4641E",
"T@	c #DCB4AC",
"U@	c #0A92EC",
"V@	c #0285E0",
"W@	c #0777C3",
"X@	c #1B77C0",
"Y@	c #0077D2",
"Z@	c #0582D9",
"`@	c #36A3EB",
" #	c #D6661F",
".#	c #DF7120",
"+#	c #DF7020",
"@#	c #D5661F",
"##	c #AD8F43",
"$#	c #B1A474",
"%#	c #CBC8AA",
"&#	c #F2E18A",
"*#	c #F4E280",
"=#	c #D6D1A8",
"-#	c #E4DBA7",
";#	c #CEB764",
">#	c #D67728",
",#	c #DD6D21",
"'#	c #038CE5",
")#	c #0179D7",
"!#	c #0D73C3",
"~#	c #1D74C0",
"{#	c #0987DD",
"]#	c #2F9CE3",
"^#	c #50B4EF",
"/#	c #C26B6B",
"(#	c #C4541A",
"_#	c #B09E63",
":#	c #A09D8B",
"<#	c #07070F",
"[#	c #E2DCBC",
"}#	c #ECD976",
"|#	c #D8C56F",
"1#	c #D9C570",
"2#	c #F2E088",
"3#	c #DED5A7",
"4#	c #131216",
"5#	c #929083",
"6#	c #C8BD95",
"7#	c #D87A29",
"8#	c #048AE3",
"9#	c #0176D4",
"0#	c #106CC1",
"a#	c #1E73C2",
"b#	c #0C8CE5",
"c#	c #1584D9",
"d#	c #93ACDE",
"e#	c #C69A9F",
"f#	c #AC974F",
"g#	c #ADA581",
"h#	c #B4B29D",
"i#	c #E7D99A",
"j#	c #C3B57A",
"k#	c #625844",
"l#	c #696052",
"m#	c #DCD1A2",
"n#	c #F0E3A2",
"o#	c #CBC6A9",
"p#	c #D2CCA6",
"q#	c #CAB975",
"r#	c #C96E26",
"s#	c #D58265",
"t#	c #0A94EC",
"u#	c #0989E4",
"v#	c #097FDA",
"w#	c #399BEA",
"x#	c #1D78C1",
"y#	c #3AA9EC",
"z#	c #1081D8",
"A#	c #3E84D4",
"B#	c #0777CD",
"C#	c #C98E87",
"D#	c #E07122",
"E#	c #D6671F",
"F#	c #AC8E3C",
"G#	c #AD984D",
"H#	c #DCCA7C",
"I#	c #E1CE6F",
"J#	c #817A5E",
"K#	c #1F1D1B",
"L#	c #0B0B13",
"M#	c #B4AD8D",
"N#	c #D0BF70",
"O#	c #F6E388",
"P#	c #F6E385",
"Q#	c #CEB659",
"R#	c #C06324",
"S#	c #CB5B1D",
"T#	c #CA6738",
"U#	c #0A91EC",
"V#	c #239BF3",
"W#	c #1F92EA",
"X#	c #0781D9",
"Y#	c #319FEA",
"Z#	c #1A75C3",
"`#	c #58B8F5",
" $	c #3E9DE1",
".$	c #037AD2",
"+$	c #047AD4",
"@$	c #6294DA",
"#$	c #DEB1A7",
"$$	c #DEB1A5",
"%$	c #BF6425",
"&$	c #E8D571",
"*$	c #B1A56D",
"=$	c #655F4B",
"-$	c #B0A87F",
";$	c #F2E08A",
">$	c #EDD86F",
",$	c #CC9243",
"'$	c #D9A495",
")$	c #CBA9B1",
"!$	c #BBA2B8",
"~$	c #B4C0E2",
"{$	c #0B8DE5",
"]$	c #2290E6",
"^$	c #2796EC",
"/$	c #0380D9",
"($	c #1584CE",
"_$	c #1A79C7",
":$	c #5EB9F7",
"<$	c #49A6E5",
"[$	c #0476CC",
"}$	c #047BD4",
"|$	c #0279D3",
"1$	c #0682DC",
"2$	c #0480DB",
"3$	c #CAD6EE",
"4$	c #C05B20",
"5$	c #B37F34",
"6$	c #C9B557",
"7$	c #D3C068",
"8$	c #DDCC79",
"9$	c #E7D57A",
"0$	c #D6C161",
"a$	c #CCA64D",
"b$	c #D27426",
"c$	c #DBA79A",
"d$	c #A1B9E5",
"e$	c #0783DA",
"f$	c #0E82DA",
"g$	c #1885DE",
"h$	c #0D7EDB",
"i$	c #0F89E3",
"j$	c #0E78C5",
"k$	c #248CD2",
"l$	c #62BDF9",
"m$	c #0576CD",
"n$	c #0975D3",
"o$	c #779EDC",
"p$	c #DFB3A7",
"q$	c #B18336",
"r$	c #AC923D",
"s$	c #B29A44",
"t$	c #E1CC68",
"u$	c #F5E176",
"v$	c #F6E077",
"w$	c #D7C060",
"x$	c #B29441",
"y$	c #DC7826",
"z$	c #DD6F20",
"A$	c #DBB0A6",
"B$	c #80A3DD",
"C$	c #2E95E3",
"D$	c #1D81D7",
"E$	c #0E78DB",
"F$	c #0576D4",
"G$	c #017BD6",
"H$	c #0B75C2",
"I$	c #258FD1",
"J$	c #60C0F9",
"K$	c #4AA7E4",
"L$	c #0278CE",
"M$	c #3D85D7",
"N$	c #E5BAA9",
"O$	c #DC6D1F",
"P$	c #CB5B19",
"Q$	c #BE6B2A",
"R$	c #B28438",
"S$	c #B28439",
"T$	c #B7752F",
"U$	c #DDC0BE",
"V$	c #1883D3",
"W$	c #0C7AD0",
"X$	c #0874D5",
"Y$	c #0872BF",
"Z$	c #3B9FE2",
"`$	c #43A3E7",
" %	c #308ED2",
".%	c #027AD1",
"+%	c #B4C5E5",
"@%	c #D9A89B",
"#%	c #DB6D20",
"$%	c #DCAB9E",
"%%	c #E3C0B5",
"&%	c #C5541B",
"*%	c #D7681E",
"=%	c #D9967E",
"-%	c #8AA7DD",
";%	c #037CD5",
">%	c #0379D3",
",%	c #0278D4",
"'%	c #0179D3",
")%	c #127DCA",
"!%	c #52AEF4",
"~%	c #2085D9",
"{%	c #0972C8",
"]%	c #0478D1",
"^%	c #8FACDF",
"/%	c #D8ADA2",
"(%	c #DD6F21",
"_%	c #DC6E21",
":%	c #C5571C",
"<%	c #AB97B4",
"[%	c #87A6DD",
"}%	c #0688E2",
"|%	c #DEC0B9",
"1%	c #C4551C",
"2%	c #BC594D",
"3%	c #C7571A",
"4%	c #D96A1F",
"5%	c #DF7021",
"6%	c #9B82AD",
"7%	c #B0C3E6",
"8%	c #027AD2",
"9%	c #0286DD",
"0%	c #1C8BD5",
"a%	c #56ACF1",
"b%	c #1B82DB",
"c%	c #0673D0",
"d%	c #077ED8",
"e%	c #088CE7",
"f%	c #CE7660",
"g%	c #D67C55",
"h%	c #CD8F7F",
"i%	c #98AFDE",
"j%	c #037BD4",
"k%	c #0587E2",
"l%	c #0C8AE1",
"m%	c #82A5DE",
"n%	c #848EC6",
"o%	c #CA7D67",
"p%	c #D86920",
"q%	c #CBA9A9",
"r%	c #027AD3",
"s%	c #0386DF",
"t%	c #058FE6",
"u%	c #1A8DD8",
"v%	c #53ADF2",
"w%	c #1A83D8",
"x%	c #0475CD",
"y%	c #8B9BCF",
"z%	c #AAA0BF",
"A%	c #B9A6BA",
"B%	c #C2AAB7",
"C%	c #A19CC2",
"D%	c #0478D4",
"E%	c #1584E0",
"F%	c #0A8CEF",
"G%	c #0E91E9",
"H%	c #3EABEC",
"I%	c #0B7ED7",
"J%	c #0B7CD2",
"K%	c #1B7FCA",
"L%	c #DDB6AB",
"M%	c #DCB6AB",
"N%	c #D2B1B0",
"O%	c #A5BBE1",
"P%	c #057ED9",
"Q%	c #058AE5",
"R%	c #0496F0",
"S%	c #1D8DD8",
"T%	c #398CD5",
"U%	c #0E7BD1",
"V%	c #0384DF",
"W%	c #0284DF",
"X%	c #0A85DC",
"Y%	c #218FE1",
"Z%	c #0477CE",
"`%	c #0C87E4",
" &	c #0882DF",
".&	c #0782DF",
"+&	c #078DED",
"@&	c #0E90E6",
"#&	c #4DB6F5",
"$&	c #3D9DE0",
"%&	c #258CD8",
"&&	c #057ACD",
"*&	c #077BCF",
"=&	c #218DE0",
"-&	c #2591E2",
";&	c #1D8DE0",
">&	c #0E81DA",
",&	c #0787DE",
"'&	c #0594F6",
")&	c #1197F7",
"!&	c #39A2E9",
"~&	c #2076BC",
"{&	c #0676CD",
"]&	c #0A7DD3",
"^&	c #0A89E1",
"/&	c #0696F3",
"(&	c #0396F5",
"_&	c #0296F4",
":&	c #149AEB",
"<&	c #2392DD",
"[&	c #0373CB",
"}&	c #0484E0",
"|&	c #0187E3",
"1&	c #058AE6",
"2&	c #1B96E9",
"3&	c #3EAEEA",
"4&	c #43A6E7",
"5&	c #2884D7",
"6&	c #1483D8",
"7&	c #2595E7",
"8&	c #2496E7",
"9&	c #2AA0F2",
"0&	c #2EA2F4",
"a&	c #2192E6",
"b&	c #057AD3",
"c&	c #0A80DB",
"d&	c #0691E1",
"e&	c #0196F9",
"f&	c #1897FB",
"g&	c #46ACF0",
"h&	c #2172C1",
"i&	c #0A75CE",
"j&	c #0989DC",
"k&	c #0B96EB",
"l&	c #159BF4",
"m&	c #148DE6",
"n&	c #0579D3",
"o&	c #0576D2",
"p&	c #0396F1",
"q&	c #1B98EC",
"r&	c #3CA6EA",
"s&	c #54B6F5",
"t&	c #1877C8",
"u&	c #147ED5",
"v&	c #2A9AE9",
"w&	c #3EAEFB",
"x&	c #37ADFB",
"y&	c #0C98EE",
"z&	c #0C8FEA",
"A&	c #0A85E2",
"B&	c #0378D8",
"C&	c #057FDD",
"D&	c #088CE8",
"E&	c #0398F1",
"F&	c #079AF9",
"G&	c #1B9DF3",
"H&	c #3FA5E5",
"I&	c #2473B4",
"J&	c #1373C3",
"K&	c #1581CD",
"L&	c #1C8FDB",
"M&	c #1F91DF",
"N&	c #1A8CDB",
"O&	c #3DAAF1",
"P&	c #3894DB",
"Q&	c #1277BC",
"R&	c #0A7ABD",
"S&	c #1992D8",
"T&	c #1B95D9",
"U&	c #50AFE1",
"V&	c #63B9E5",
"W&	c #1277B9",
"X&	c #0C70BF",
"Y&	c #3E9EE7",
"Z&	c #38A7EB",
"`&	c #1E8ED8",
" *	c #1B90D9",
".*	c #1A92DD",
"+*	c #1280CE",
"@*	c #0E74C7",
"#*	c #0F74C7",
"$*	c #1D8ADA",
"%*	c #1C92DF",
"&*	c #1B94E4",
"**	c #2D9BDC",
"=*	c #43A5DE",
"-*	c #2571AD",
"  . + @ # $ % & * = - ; > , ' ) ! ~ { ] ^ / ( _ : < [ } | 1 ",
"2 3 4 5 6 7 8 9 0 a b c d e f g h i j k l m n o p q r s t u ",
"v w x y z A B C D E F G H I J K L M N O P Q R S T U V W X Y ",
"Z `  ...+.@.#.$.%.&.*.=.-.;.>.,.'.).!.~.~.{.].^./.(._.:.<.[.",
"}.|.1.2.3.4.5.6.7.8.9.0.a.'.b.c.d.'.e.f.g.h.N i.j.k.l.m.n.o.",
"p.q.r.s.t.u.v.w.x.y.z.A.'.B.C.D.E.F.G.e.H.I.J.K.L.M.N.O.P.Q.",
"R.S.T.U.V.u.W.X.Y.Z.`. +.+++@+#+$+%+&+*+=+-+;+>+,+'+)+!+~+{+",
"]+^+/+(+_+v.:+>.Y.<+[+}+|+1+2+#+2+1+3+4+5+-+6+7+8+9+0+a+b+c+",
"d+^+^+'.e+f+g+h+#+i+j+k+l+m+n+#+#+o+p+q+r+#+s+t+u+v+w+x+y+z+",
"A+B+C+D+E+F+G+H+#+#+I+J+K+L+M+N+#+o+O+P+Q+#+R+t+S+T+U+V+W+X+",
"Y+Z+`+/+ @.@+@H+#+@@#@$@%@&@&@*@=@-@;@>@#+#+R+t+,@'@)@!@~@{@",
"]@^@/@(@_@:@<@[@}@|@1@2@3@4@4@4@4@4@5@6@i+7@8@9@0@a@b@c@d@e@",
"f@g@h@i@j@k@l@m@n@o@p@q@r@s@s@s@s@s@t@u@v@w@x@y@z@ @$.A@B@C@",
"D@E@F@G@H@I@J@J@K@L@q@M@N@s@s@s@s@s@s@O@P@Q@R@R@R@S@T@U@V@W@",
"X@Y@Z@`@ #.#+#@#L+##$#%#&#s@s@s@s@*#=#-#;#>#+#+#+#,#T@'#)#!#",
"~#{#]#^#/##+#+r+(#_#:#<#[#}#|#1#2#3#4#5#6#7##+#+#+,#T@8#9#0#",
"a#b#c#d#e#+##+r+(#f#g#h#i#j#k#l#m#n#o#p#q#r##+#+#+s#t#u#v#w#",
"x#y#z#A#B#C#D#E#L+F#G#H#I#J#K#L#M#N#O#P#Q#R#S#S#T#U#V#W#X#Y#",
"Z#`# $.$+$@$R@#$$$%$q@q@&$*$=$=$-$;$s@>$,$'$)$!$~${$]$^$/$($",
"_$:$<$[$}$|$1$2$3$4$5$q@6$7$8$8$9$s@0$a$b$c$d$c@e$f$g$h$i$j$",
"k$l$<$m$n$'.'.o$p$L+o@q$r$s$t$u$v$w$x$y$#+z$A$B$C$D$E$F$G$H$",
"I$J$K$L$'.'.M$N$O$P$L+L+L+Q$R$S$T$L+|@#+#+#+R+U$V$W$X$F$/+Y$",
"Z$`$ %.%'.+%@%#%#+n+M+L+L+L+$%%%&%L+|@*%#+#+D#=%-%;%>%,%'%)%",
"!%~%{%]%^%/%(%#+#+#+2+_%:%<%[%}%|%1%2%3%4%#+#+5%6%7%8%m 9%0%",
"a%b%c%d%e%f%7@7@7@7@g%h%i%j%'.k%l%m%n%o%L+p%7@7@_%q%r%s%t%u%",
"v%w%x%e.i.y%z%A%B%C%D%E%d%e.F%G%H%I%J%K%L%M%M%L%N%O%P%Q%R%S%",
"T%U%m$f.@.V%W%X%Y%Z%`% &.&+&@&#&$&%&&&*&=&-&;&>&>%|$,&'&)&!&",
"~&{&]&^&/&(&_&:&<&[&}&|&1&2&3&4&5&6&7&8&9&0&a&b&d%c&d&e&f&g&",
"h&i&j&k&v+v+l&m&n&o&~.p&q&r&s&t&u&v&w&x&y&z&A&B&C&D&E&F&G&H&",
"I&J&K&L&M&N&O&P&Q&R&S&T&U&V&W&X&Y&Z&`& *.*+*@*#*$*%*&***=*-*"};
