/* XPM */
static char * walls_xpm[] = {
"30 30 863 2",
"  	c #6A1511",
". 	c #5D110C",
"+ 	c #5D0F05",
"@ 	c #A04C42",
"# 	c #A44A38",
"$ 	c #A13D26",
"% 	c #A23924",
"& 	c #9F392B",
"* 	c #8C2E26",
"= 	c #7A211B",
"- 	c #69130D",
"; 	c #5B0600",
"> 	c #661107",
", 	c #731E14",
"' 	c #76211B",
") 	c #6B1D16",
"! 	c #540C03",
"~ 	c #6C1A0F",
"{ 	c #B34D41",
"] 	c #B55542",
"^ 	c #B44939",
"/ 	c #B04234",
"( 	c #A6392B",
"_ 	c #A7392B",
": 	c #A93A29",
"< 	c #A83924",
"[ 	c #A53A26",
"} 	c #A54336",
"| 	c #A84B43",
"1 	c #620F05",
"2 	c #A95349",
"3 	c #71251E",
"4 	c #5C0E04",
"5 	c #742117",
"6 	c #7A1E10",
"7 	c #802310",
"8 	c #7E2211",
"9 	c #7C2117",
"0 	c #781F1D",
"a 	c #751E1E",
"b 	c #681414",
"c 	c #580805",
"d 	c #5E100B",
"e 	c #5C0E0A",
"f 	c #5C0F0A",
"g 	c #540E08",
"h 	c #4F0F02",
"i 	c #651506",
"j 	c #A83E32",
"k 	c #A63E2E",
"l 	c #AC4030",
"m 	c #A6392C",
"n 	c #A7392C",
"o 	c #A43729",
"p 	c #A63726",
"q 	c #A73823",
"r 	c #A53A27",
"s 	c #88261A",
"t 	c #7B1F17",
"u 	c #5E0A02",
"v 	c #AE5446",
"w 	c #732019",
"x 	c #68120A",
"y 	c #661409",
"z 	c #701C0F",
"A 	c #742314",
"B 	c #6E2215",
"C 	c #6F2118",
"D 	c #721E1E",
"E 	c #731E1F",
"F 	c #6E1616",
"G 	c #650F08",
"H 	c #68150D",
"I 	c #67160D",
"J 	c #65150B",
"K 	c #5F1406",
"L 	c #5D1606",
"M 	c #70190B",
"N 	c #A83E33",
"O 	c #A83E31",
"P 	c #A13124",
"Q 	c #A6372A",
"R 	c #A5382B",
"S 	c #A23729",
"T 	c #A23727",
"U 	c #A03827",
"V 	c #A03B2A",
"W 	c #7B1E13",
"X 	c #751B14",
"Y 	c #6C170F",
"Z 	c #A03E2F",
"` 	c #B64741",
" .	c #AE3E3C",
"..	c #68140D",
"+.	c #591106",
"@.	c #551507",
"#.	c #4F1505",
"$.	c #521103",
"%.	c #570D04",
"&.	c #5B0B05",
"*.	c #963126",
"=.	c #BD4A38",
"-.	c #BD4F3B",
";.	c #B74E38",
">.	c #B54D35",
",.	c #B3482F",
"'.	c #B64C38",
").	c #AF483A",
"!.	c #710C04",
"~.	c #7E1911",
"{.	c #AE3932",
"].	c #AF3C34",
"^.	c #A63A2F",
"/.	c #973325",
"(.	c #7E2114",
"_.	c #7D241D",
":.	c #7A251E",
"<.	c #78251C",
"[.	c #712017",
"}.	c #6E1F18",
"|.	c #B2473D",
"1.	c #AD3D3A",
"2.	c #65130B",
"3.	c #580E07",
"4.	c #570E07",
"5.	c #571506",
"6.	c #6C291D",
"7.	c #6F2116",
"8.	c #732016",
"9.	c #8E3123",
"0.	c #A54130",
"a.	c #B54C3D",
"b.	c #B54736",
"c.	c #B94735",
"d.	c #B94935",
"e.	c #B34836",
"f.	c #A33E30",
"g.	c #5E0805",
"h.	c #741715",
"i.	c #9E3535",
"j.	c #9D3333",
"k.	c #902B2A",
"l.	c #852623",
"m.	c #781C17",
"n.	c #6F1A15",
"o.	c #6E1B15",
"p.	c #742019",
"q.	c #6F1E17",
"r.	c #6F1E18",
"s.	c #9C3B2C",
"t.	c #9D3C2F",
"u.	c #A03731",
"v.	c #76221A",
"w.	c #6C1918",
"x.	c #5F0903",
"y.	c #6F1F0F",
"z.	c #AD5241",
"A.	c #B24D40",
"B.	c #B64B40",
"C.	c #892E24",
"D.	c #5B0200",
"E.	c #8F3021",
"F.	c #A93F33",
"G.	c #A93B2F",
"H.	c #AD4336",
"I.	c #7E1A0D",
"J.	c #74170F",
"K.	c #5D0706",
"L.	c #641315",
"M.	c #681916",
"N.	c #6D1E19",
"O.	c #5C0B07",
"P.	c #600D09",
"Q.	c #5D0D08",
"R.	c #591207",
"S.	c #561003",
"T.	c #520C02",
"U.	c #5E0F05",
"V.	c #89291A",
"W.	c #8C3525",
"X.	c #933129",
"Y.	c #640D0A",
"Z.	c #6F1318",
"`.	c #852722",
" +	c #93321E",
".+	c #AE4634",
"++	c #B44232",
"@+	c #B93F33",
"#+	c #9E3428",
"$+	c #872F27",
"%+	c #872B21",
"&+	c #852A22",
"*+	c #8F3129",
"=+	c #94352D",
"-+	c #7B1E16",
";+	c #731B19",
">+	c #57080B",
",+	c #5D1316",
"'+	c #651D12",
")+	c #6D2111",
"!+	c #7C2B1E",
"~+	c #7E251B",
"{+	c #7D251C",
"]+	c #772722",
"^+	c #772723",
"/+	c #5D1009",
"(+	c #5A0901",
"_+	c #862D23",
":+	c #7B1A0F",
"<+	c #702015",
"[+	c #751B13",
"}+	c #590908",
"|+	c #6D171B",
"1+	c #BD5853",
"2+	c #BE523C",
"3+	c #AD3B26",
"4+	c #B03624",
"5+	c #B23524",
"6+	c #B9453A",
"7+	c #B94E47",
"8+	c #781C16",
"9+	c #5C0703",
"0+	c #6D1E1A",
"a+	c #6D1F1B",
"b+	c #72211F",
"c+	c #6A1B1C",
"d+	c #580A0C",
"e+	c #5D1010",
"f+	c #600700",
"g+	c #842919",
"h+	c #B5523F",
"i+	c #B64E3B",
"j+	c #B74D3D",
"k+	c #B34E43",
"l+	c #B44E46",
"m+	c #701711",
"n+	c #670700",
"o+	c #AF463B",
"p+	c #771613",
"q+	c #6A1D1B",
"r+	c #67120A",
"s+	c #57110F",
"t+	c #611A16",
"u+	c #A6463C",
"v+	c #B03C2A",
"w+	c #AD3726",
"x+	c #AD3824",
"y+	c #B53D31",
"z+	c #BB4741",
"A+	c #87241D",
"B+	c #6A1912",
"C+	c #641E1A",
"D+	c #5D1C1C",
"E+	c #5D191C",
"F+	c #671C19",
"G+	c #88372E",
"H+	c #8F362B",
"I+	c #9B3629",
"J+	c #A03727",
"K+	c #AB412F",
"L+	c #AB422B",
"M+	c #AB4229",
"N+	c #AE412B",
"O+	c #B14030",
"P+	c #741609",
"Q+	c #670A00",
"R+	c #A63F32",
"S+	c #731611",
"T+	c #62120F",
"U+	c #600800",
"V+	c #590F0C",
"W+	c #651812",
"X+	c #A34237",
"Y+	c #A8392A",
"Z+	c #A9392B",
"`+	c #A9392A",
" @	c #A8382D",
".@	c #A53730",
"+@	c #8F2C24",
"@@	c #762118",
"#@	c #60150D",
"$@	c #470406",
"%@	c #4A0306",
"&@	c #63140E",
"*@	c #B25748",
"=@	c #B65541",
"-@	c #B85037",
";@	c #B24930",
">@	c #A33928",
",@	c #A4392A",
"'@	c #A4382B",
")@	c #A43B2A",
"!@	c #A8392D",
"~@	c #6E1509",
"{@	c #630A01",
"]@	c #9D3D33",
"^@	c #6C140B",
"/@	c #8A3429",
"(@	c #913421",
"_@	c #5F0E06",
":@	c #691307",
"<@	c #A24034",
"[@	c #A23C34",
"}@	c #88221A",
"|@	c #8F2820",
"1@	c #8F2821",
"2@	c #912A25",
"3@	c #8C2623",
"4@	c #7E1F17",
"5@	c #6D1307",
"6@	c #8C3726",
"7@	c #983923",
"8@	c #993823",
"9@	c #8D3324",
"0@	c #79281F",
"a@	c #813028",
"b@	c #AF4B32",
"c@	c #A63D24",
"d@	c #A33827",
"e@	c #A3382A",
"f@	c #A1392D",
"g@	c #973428",
"h@	c #952E28",
"i@	c #66110A",
"j@	c #5C0B06",
"k@	c #7D2420",
"l@	c #5F0B03",
"m@	c #9A4132",
"n@	c #AD4933",
"o@	c #5D0C04",
"p@	c #761E0D",
"q@	c #9E3D31",
"r@	c #983636",
"s@	c #7C191A",
"t@	c #7A1917",
"u@	c #751516",
"v@	c #741514",
"w@	c #741811",
"x@	c #630500",
"y@	c #A54730",
"z@	c #BB5337",
"A@	c #BA5238",
"B@	c #A94833",
"C@	c #640B03",
"D@	c #772218",
"E@	c #A74133",
"F@	c #A53C2A",
"G@	c #A23826",
"H@	c #A03722",
"I@	c #9D3823",
"J@	c #87291E",
"K@	c #7C1A17",
"L@	c #60100D",
"M@	c #570B09",
"N@	c #751F1F",
"O@	c #A54232",
"P@	c #A53C2D",
"Q@	c #A73C29",
"R@	c #9E3E30",
"S@	c #963929",
"T@	c #731F14",
"U@	c #6A2020",
"V@	c #650F11",
"W@	c #650C0A",
"X@	c #63100B",
"Y@	c #5F0F0C",
"Z@	c #661513",
"`@	c #934037",
" #	c #9D4231",
".#	c #A13E26",
"+#	c #A83E26",
"@#	c #A83C25",
"##	c #A5402E",
"$#	c #953324",
"%#	c #711B13",
"&#	c #7A2016",
"*#	c #832317",
"=#	c #872414",
"-#	c #862517",
";#	c #721C15",
">#	c #731B18",
",#	c #5F120E",
"'#	c #5A0E0B",
")#	c #721D1D",
"!#	c #BD4837",
"~#	c #AD392B",
"{#	c #A93B2B",
"]#	c #B44E3E",
"^#	c #9E3F2E",
"/#	c #5C0E05",
"(#	c #511612",
"_#	c #530D08",
":#	c #5F1107",
"<#	c #5C0B03",
"[#	c #550B01",
"}#	c #560A01",
"|#	c #933F35",
"1#	c #AB4F3E",
"2#	c #A5422C",
"3#	c #A13823",
"4#	c #A03321",
"5#	c #A73A2A",
"6#	c #B44837",
"7#	c #A23A2C",
"8#	c #560B03",
"9#	c #5E1610",
"0#	c #6E1C19",
"a#	c #741B1A",
"b#	c #761B1A",
"c#	c #731E19",
"d#	c #73201A",
"e#	c #691912",
"f#	c #5E0F06",
"g#	c #711B16",
"h#	c #B13C2A",
"i#	c #AE392D",
"j#	c #A83A2D",
"k#	c #A64030",
"l#	c #983927",
"m#	c #6E1B11",
"n#	c #611814",
"o#	c #4A0801",
"p#	c #783020",
"q#	c #AD5242",
"r#	c #79251A",
"s#	c #5E0C02",
"t#	c #772318",
"u#	c #7A2314",
"v#	c #7E2213",
"w#	c #822113",
"x#	c #9A3328",
"y#	c #9F372C",
"z#	c #861F16",
"A#	c #832019",
"B#	c #560705",
"C#	c #580E0E",
"D#	c #5D1011",
"E#	c #5F0E11",
"F#	c #600E0D",
"G#	c #630E04",
"H#	c #974036",
"I#	c #994339",
"J#	c #6A150C",
"K#	c #AF392A",
"L#	c #AF3A2E",
"M#	c #A4362B",
"N#	c #9E372A",
"O#	c #963728",
"P#	c #7B2316",
"Q#	c #6F1F13",
"R#	c #5C1203",
"S#	c #7C2C17",
"T#	c #B6523B",
"U#	c #8E2E1B",
"V#	c #701607",
"W#	c #711A0B",
"X#	c #721F14",
"Y#	c #742118",
"Z#	c #7B211B",
"`#	c #91312D",
" $	c #91302D",
".$	c #771513",
"+$	c #791B17",
"@$	c #6A0F0A",
"#$	c #680F09",
"$$	c #67140C",
"%$	c #5F0F07",
"&$	c #5B0700",
"*$	c #6E1004",
"=$	c #731607",
"-$	c #A8493A",
";$	c #A54637",
">$	c #721405",
",$	c #B1392A",
"'$	c #AF3B30",
")$	c #A4372C",
"!$	c #892417",
"~$	c #7B1D0E",
"{$	c #5D0901",
"]$	c #6E2011",
"^$	c #AF513F",
"/$	c #A9422E",
"($	c #A54026",
"_$	c #AF4B33",
":$	c #B3513D",
"<$	c #731E0F",
"[$	c #5B0B02",
"}$	c #5B0E08",
"|$	c #620E0B",
"1$	c #771F1D",
"2$	c #791F1E",
"3$	c #640706",
"4$	c #7B1B16",
"5$	c #BE5145",
"6$	c #B94E3F",
"7$	c #BC5A48",
"8$	c #893322",
"9$	c #680E01",
"0$	c #A44534",
"a$	c #B85542",
"b$	c #A23F2C",
"c$	c #A43D2B",
"d$	c #A03624",
"e$	c #AC382B",
"f$	c #A23E2E",
"g$	c #913A29",
"h$	c #74210F",
"i$	c #741C0C",
"j$	c #721609",
"k$	c #8A271A",
"l$	c #B74C3D",
"m$	c #B04131",
"n$	c #A73B28",
"o$	c #B14432",
"p$	c #B24534",
"q$	c #922D1E",
"r$	c #76180E",
"s$	c #731B10",
"t$	c #6F1C16",
"u$	c #661B1A",
"v$	c #661911",
"w$	c #6D1503",
"x$	c #832218",
"y$	c #B64639",
"z$	c #B44536",
"A$	c #B74A3A",
"B$	c #9D3727",
"C$	c #741106",
"D$	c #94352F",
"E$	c #AA473E",
"F$	c #A13A2B",
"G$	c #A73827",
"H$	c #A73724",
"I$	c #A63829",
"J$	c #832A19",
"K$	c #6D250F",
"L$	c #541001",
"M$	c #691707",
"N$	c #B55145",
"O$	c #B7483D",
"P$	c #A43428",
"Q$	c #A63629",
"R$	c #AB392D",
"S$	c #AD392D",
"T$	c #AF3B2F",
"U$	c #B34437",
"V$	c #B65042",
"W$	c #B25241",
"X$	c #AA524A",
"Y$	c #57130F",
"Z$	c #621D0C",
"`$	c #AE5238",
" %	c #AE473A",
".%	c #A5362A",
"+%	c #A6362A",
"@%	c #AE3E32",
"#%	c #B64C42",
"$%	c #762421",
"%%	c #640100",
"&%	c #9C362A",
"*%	c #A53929",
"=%	c #A53526",
"-%	c #7D2514",
";%	c #6A220E",
">%	c #4F0A00",
",%	c #722012",
"'%	c #A9463A",
")%	c #BA4B41",
"!%	c #A93A2D",
"~%	c #A33427",
"{%	c #A43226",
"]%	c #A52F25",
"^%	c #AD372D",
"/%	c #B24337",
"(%	c #AD4838",
"_%	c #A64737",
":%	c #9D443C",
"<%	c #5E1814",
"[%	c #601B08",
"}%	c #AA4C32",
"|%	c #A74030",
"1%	c #A9392D",
"2%	c #AA3A2D",
"3%	c #B04135",
"4%	c #B4493D",
"5%	c #893025",
"6%	c #792419",
"7%	c #91352A",
"8%	c #95382B",
"9%	c #9B3329",
"0%	c #A43D2E",
"a%	c #7E2618",
"b%	c #6B2210",
"c%	c #561100",
"d%	c #681607",
"e%	c #9F3B2F",
"f%	c #A7372E",
"g%	c #A7372C",
"h%	c #A8382C",
"i%	c #A9372C",
"j%	c #AB352B",
"k%	c #AC362C",
"l%	c #A23D2E",
"m%	c #842415",
"n%	c #751C13",
"o%	c #5D1612",
"p%	c #5E1706",
"q%	c #9F4127",
"r%	c #A23C2C",
"s%	c #AC3D30",
"t%	c #AC3C30",
"u%	c #A4392B",
"v%	c #AB4E3C",
"w%	c #A94F3F",
"x%	c #69170A",
"y%	c #5C0B01",
"z%	c #751C14",
"A%	c #912F21",
"B%	c #731C0D",
"C%	c #631A07",
"D%	c #813B2B",
"E%	c #843020",
"F%	c #8D2F25",
"G%	c #942A25",
"H%	c #952A22",
"I%	c #A03125",
"J%	c #A9382A",
"K%	c #AB3729",
"L%	c #AB372A",
"M%	c #A6372C",
"N%	c #8F2A1F",
"O%	c #721509",
"P%	c #6E1610",
"Q%	c #58100E",
"R%	c #5E1606",
"S%	c #852D17",
"T%	c #912F22",
"U%	c #9D3226",
"V%	c #9A2D20",
"W%	c #AA3C2E",
"X%	c #A53A29",
"Y%	c #9E412C",
"Z%	c #9A4232",
"`%	c #67190E",
" &	c #570F08",
".&	c #641A15",
"+&	c #751F11",
"@&	c #620F02",
"#&	c #601404",
"$&	c #AE5042",
"%&	c #A54134",
"&&	c #600500",
"*&	c #620E07",
"=&	c #73100A",
"-&	c #95291F",
";&	c #A63D2A",
">&	c #9F3721",
",&	c #A93E2C",
"'&	c #93281C",
")&	c #5A0B02",
"!&	c #580704",
"~&	c #560806",
"{&	c #560703",
"]&	c #5A0601",
"^&	c #681311",
"/&	c #751918",
"(&	c #842617",
"_&	c #A33F27",
":&	c #A83B27",
"<&	c #A73B2B",
"[&	c #8A2817",
"}&	c #771C10",
"|&	c #5E0C05",
"1&	c #590E0D",
"2&	c #4F0A08",
"3&	c #6A1E0D",
"4&	c #92392C",
"5&	c #943B2D",
"6&	c #AA3A31",
"7&	c #B63F3A",
"8&	c #9E3B35",
"9&	c #8B3630",
"0&	c #6A1109",
"a&	c #7C1D12",
"b&	c #962E20",
"c&	c #932919",
"d&	c #892416",
"e&	c #741709",
"f&	c #6C1609",
"g&	c #943E36",
"h&	c #983D33",
"i&	c #9A3C30",
"j&	c #983B2D",
"k&	c #943729",
"l&	c #91332A",
"m&	c #670F11",
"n&	c #781F18",
"o&	c #892C1D",
"p&	c #8B281B",
"q&	c #8C271F",
"r&	c #85241B",
"s&	c #7C2119",
"t&	c #65100D",
"u&	c #600C0B",
"v&	c #924142",
"w&	c #5A1001",
"x&	c #AA483D",
"y&	c #B25043",
"z&	c #A82F29",
"A&	c #B63833",
"B&	c #C14D49",
"C&	c #A6433A",
"D&	c #5E0600",
"E&	c #640F03",
"F&	c #7B1710",
"G&	c #811812",
"H&	c #79190E",
"I&	c #681505",
"J&	c #590200",
"K&	c #AA4538",
"L&	c #BD5141",
"M&	c #BB4E39",
"N&	c #B94D36",
"O&	c #B74A33",
"P&	c #AA412E",
"Q&	c #5E0100",
"R&	c #670E0D",
"S&	c #761C1A",
"T&	c #751B19",
"U&	c #751C18",
"V&	c #78201B",
"W&	c #6D1511",
"X&	c #5E0301",
"Y&	c #AD4947",
"Z&	c #953F2B",
"`&	c #86291B",
" *	c #7E2419",
".*	c #AB3932",
"+*	c #AB342C",
"@*	c #B34238",
"#*	c #A83F32",
"$*	c #9B3D31",
"%*	c #832E27",
"&*	c #6A1210",
"**	c #680E0C",
"=*	c #69120A",
"-*	c #933B31",
";*	c #A14133",
">*	c #AE4432",
",*	c #B2442F",
"'*	c #AD3D25",
")*	c #AC3C23",
"!*	c #AD3E25",
"~*	c #A63B23",
"{*	c #9D422B",
"]*	c #7C291D",
"^*	c #60120D",
"/*	c #60140E",
"(*	c #641313",
"_*	c #671211",
":*	c #943B35",
"<*	c #94382F",
"[*	c #A43B32",
"}*	c #B04A3A",
"|*	c #752114",
"1*	c #631104",
"2*	c #99332D",
"3*	c #A13730",
"4*	c #A33D30",
"5*	c #A6402D",
"6*	c #B95043",
"7*	c #9A3C37",
"8*	c #540202",
"9*	c #500703",
"0*	c #5E0C06",
"a*	c #9D3C33",
"b*	c #B94F41",
"c*	c #A23B27",
"d*	c #A53C27",
"e*	c #A53B27",
"f*	c #A33927",
"g*	c #AC4530",
"h*	c #AD4F2E",
"i*	c #8D3B26",
"j*	c #510400",
"k*	c #520A00",
"l*	c #550A00",
"m*	c #5B0706",
"n*	c #5F0401",
"o*	c #A5463F",
"p*	c #B34E42",
"q*	c #A2382A",
"r*	c #A53A2F",
"s*	c #76130E",
"t*	c #690601",
"u*	c #821E1A",
"v*	c #8D2825",
"w*	c #A33F34",
"x*	c #A13F2B",
"y*	c #A23E2D",
"z*	c #9A3A28",
"A*	c #74190B",
"B*	c #620C04",
"C*	c #630A05",
"D*	c #93362C",
"E*	c #A23B2C",
"F*	c #A33A27",
"G*	c #A63B29",
"H*	c #A73A2B",
"I*	c #AB3F30",
"J*	c #872F25",
"K*	c #570904",
"L*	c #842E24",
"M*	c #AB4135",
"N*	c #AF4034",
"O*	c #B04033",
"P*	c #A9392C",
"Q*	c #A9372B",
"R*	c #AA3729",
"S*	c #9E3730",
"T*	c #781813",
"U*	c #6A0B07",
"V*	c #7C1D1B",
"W*	c #832522",
"X*	c #9C3E36",
"Y*	c #9D4032",
"Z*	c #8D3121",
"`*	c #751C10",
" =	c #671108",
".=	c #92362C",
"+=	c #A13C2D",
"@=	c #A43B29",
"#=	c #A63B2E",
"$=	c #832A23",
"%=	c #580603",
"&=	c #8C332A",
"*=	c #B64A3D",
"==	c #BA4A3A",
"-=	c #BB4A3A",
";=	c #AB3A2C",
">=	c #AA382A",
",=	c #A8392B",
"'=	c #9B3B32",
")=	c #7F2620",
"!=	c #731C17",
"~=	c #5F0C09",
"{=	c #67120E",
"]=	c #79251C",
"^=	c #7A251C",
"/=	c #78241A",
"(=	c #722019",
"_=	c #66140F",
":=	c #580200",
"<=	c #91362C",
"[=	c #A4372A",
"}=	c #A03A2D",
"|=	c #8C312A",
"1=	c #5F0806",
"2=	c #852A21",
"3=	c #A1392A",
"4=	c #A43928",
"5=	c #A83D2E",
"6=	c #A53A2B",
"  . + @ # $ % & * = - ; > , ' ) ! ~ { ] ^ / ( _ : < [ } | 1 ",
"2 3 4 5 6 7 8 9 0 a b c d e f g h i j k l m n o p q r s t u ",
"v w x y z A B C D E F G H I J K L M N O P Q R S T U V W X Y ",
"Z `  ...+.@.#.$.%.&.*.=.-.;.>.,.'.).!.~.{.].^./.(._.:.<.[.}.",
"Z |.1.2.3.4.5.6.7.8.9.0.a.b.c.d.e.f.g.h.i.j.k.l.m.n.o.p.q.r.",
"s.t.u.v.w.x.y.z.A.B.C.D.E.F.G.H.I.J.K.L.M.N.O.P.Q.R.R.S.T.U.",
"V.W.X.Y.Z.`. +.+++@+#+$+%+&+*+=+-+;+>+,+'+)+!+~+{+]+^+/+(+_+",
":+<+[+}+|+1+2+3+4+5+6+7+8+9+0+a+b+c+d+e+f+g+h+i+j+k+l+m+n+o+",
"p+q+r+s+t+u+v+w+w+x+y+z+A+B+C+D+E+F+G+H+I+J+K+L+M+N+O+P+Q+R+",
"S+T+U+V+W+X+Y+Z+`+Z+ @.@+@@@#@$@%@&@*@=@-@;@>@,@'@)@!@~@{@]@",
"^@/@(@_@:@<@[@}@|@1@2@3@4@5@6@7@8@9@0@a@b@c@d@e@f@g@h@i@j@k@",
"l@m@n@o@p@q@r@s@t@t@u@v@w@x@y@z@A@B@C@D@E@F@G@H@I@J@K@L@M@N@",
"O@P@Q@R@S@T@U@V@W@X@Y@Z@`@ #.#+#@#[ ##$#%#&#*#=#-#;#>#,#'#)#",
"!#~#{#]#^#/#(#_#:#<#[#}#|#1#2#3#4#5#6#7#8#9#0#a#b#c#d#e#f#g#",
"h#i#j#k#l#m#n#o#p#q#r#s#t#u#v#w#x#y#z#A#B#C#D#E#F#G#C@H#I#J#",
"K#L#M#N#O#P#Q#R#S#T#U#V#W#X#Y#Z#`# $.$+$@$#$$$%$&$*$=$-$;$>$",
",$'$)$!$~${$]$^$/$($_$:$<$[$}$|$1$2$3$4$5$6$7$8$9$0$a$b$c$d$",
"e$f$g$h$i$j$k$l$m$n$o$p$q$r$s$t$u$v$w$x$y$z$A$B$C$D$E$F$G$H$",
"I$J$K$L$M$N$O$P$Q$R$S$T$U$V$W$X$Y$Z$`$ %.%Q$+%@%#%$%%%&%*%=%",
"*%-%;%>%,%'%)%!%~%{%]%^%/%(%_%:%<%[%}%|%j#1%2%3%4%5%6%7%8%9%",
"0%a%b%c%d%e%f%g%h%i%j%k%h%l%m%n%o%p%q%r%s%t%1%+%u%v%w%x%y%z%",
"A%B%C%D%E%F%G%H%I%J%K%L%M%N%O%P%Q%R%S%T%U%V%W%!%X%Y%Z%`% &.&",
"+&@&#&$&%&&&*&=&-&;&>&,&'&r$)&!&~&{&]&^&/&(&_&:&<&[&}&|&1&2&",
"3&4&5&6&7&8&9&0&a&b&c&d&e&f&g&h&i&j&k&l&m&n&o&p&q&r&s&t&u&v&",
"w&x&y&z&A&B&C&D&E&F&G&H&I&J&K&L&M&N&O&P&Q&R&S&T&U&V&V&W&X&Y&",
"Z&`& *.*+*@*#*$*%*&***=*-*;*>*,*'*)*!*~*{*]*F#^*/*(*_*:*<*[*",
"}*|*1*2*3*4*5*6*7*8*9*0*a*b*c*d*e*f*d@g*h*i*j*k*l*m*n*o*p*q*",
"r*s*t*u*v*w*x*y*z*A*B*C*D*E*F*G*H*n n _ I*J*K*L*M*N*O*P*Q*R*",
"S*T*U*V*W*X*Y*Y*Z*`* =C*.=+=@=5#_ n n n #=$=%=&=*===-=;=>=,=",
"'=)=!=~={=:.]=^=/=(=_=:=<=+=@=5#_ [=R S }=|=1=2=3=F*4=5=6=n "};
